<svg width="250" height="250" viewBox="0 0 250 250" fill="none" xmlns="http://www.w3.org/2000/svg">
<path d="M54.155 43.94C28.245 43.94 28.2 80.78 54.155 80.78C80.11 80.78 80.105 43.94 54.155 43.94Z" fill="#EBEBEB"/>
<path d="M69.91 65.815C68.525 72.15 63.27 77.65 54.15 77.65C32.615 77.65 32.65 47.07 54.15 47.07C54.29 47.07 54.43 47.07 54.57 47.07C34.34 47.44 34.435 76.395 54.97 76.395C63.345 76.405 68.335 71.56 69.91 65.815Z" fill="#DBDBDB"/>
<path d="M54.305 51.1C54.4759 51.0958 54.6417 51.1581 54.7676 51.2737C54.8935 51.3894 54.9697 51.5494 54.98 51.72V52.72C56.7822 52.8366 58.5151 53.4587 59.98 54.515C60.23 54.695 60.37 54.845 60.37 55.105C60.3571 55.2854 60.274 55.4536 60.1384 55.5733C60.0028 55.693 59.8256 55.7546 59.645 55.745C59.4614 55.7515 59.2823 55.687 59.145 55.565C57.923 54.634 56.4681 54.0579 54.94 53.9V61.08C59.2 61.9 60.995 63.36 60.995 65.875C60.995 68.595 58.495 70.515 54.995 70.62V72.62C54.9804 72.7883 54.9033 72.9451 54.7788 73.0593C54.6543 73.1736 54.4914 73.237 54.3225 73.237C54.1535 73.237 53.9907 73.1736 53.8662 73.0593C53.7416 72.9451 53.6645 72.7883 53.65 72.62V70.62C51.3374 70.4716 49.1308 69.5966 47.345 68.12C47.252 68.0646 47.1747 67.9864 47.1205 67.8928C47.0662 67.7991 47.0368 67.6932 47.035 67.585C47.05 67.4095 47.1301 67.2459 47.2597 67.1265C47.3892 67.0071 47.5588 66.9406 47.735 66.94C47.918 66.937 48.0959 67.001 48.235 67.12C49.7574 68.467 51.6743 69.286 53.7 69.455V62.155C49.5 61.31 47.75 59.9 47.75 57.335C47.75 54.77 50.215 52.77 53.635 52.695V51.695C53.6513 51.5297 53.7293 51.3767 53.8535 51.2664C53.9777 51.1561 54.1389 51.0967 54.305 51.1V51.1ZM53.69 60.85V53.85C50.97 53.905 49.19 55.39 49.19 57.235C49.18 59 50.075 60.055 53.69 60.85ZM54.925 62.41V69.5C57.725 69.45 59.55 67.96 59.55 66C59.55 64.235 58.57 63.155 54.925 62.41V62.41Z" fill="#DBDBDB"/>
<path d="M200.635 154.13C177.305 158.315 183.465 192.875 206.835 188.68C230.205 184.485 224 149.935 200.635 154.13Z" fill="#DBDBDB"/>
<path d="M202.825 153.735C180.59 157.735 186.755 192.285 209.025 188.285C231.295 184.285 225.09 149.74 202.825 153.735Z" fill="#EBEBEB"/>
<path d="M220.025 171.825C219.905 177.98 216.32 183.945 208.495 185.35C189.995 188.665 184.895 159.985 203.35 156.675C203.47 156.648 203.59 156.628 203.71 156.615C186.41 160.08 191.37 187.22 208.99 184.06C216.175 182.77 219.64 177.455 220.025 171.825Z" fill="#DBDBDB"/>
<path d="M207.26 160.415C207.411 160.439 207.547 160.519 207.64 160.64C207.733 160.761 207.776 160.913 207.76 161.065L207.645 162.035C209.208 162.345 210.642 163.115 211.765 164.245C211.858 164.312 211.932 164.402 211.98 164.507C212.028 164.611 212.049 164.726 212.04 164.84C212.016 165.003 211.93 165.15 211.799 165.25C211.668 165.35 211.503 165.395 211.34 165.375C211.259 165.368 211.18 165.345 211.108 165.307C211.036 165.27 210.972 165.218 210.92 165.155C209.99 164.163 208.788 163.467 207.465 163.155L206.665 169.95C210.265 171.16 211.665 172.725 211.375 175.105C211.075 177.675 208.7 179.24 205.655 178.98L205.43 180.875C205.412 181.029 205.334 181.171 205.212 181.267C205.09 181.364 204.934 181.408 204.78 181.39C204.626 181.372 204.484 181.294 204.388 181.172C204.291 181.05 204.247 180.894 204.265 180.74L204.49 178.82C202.477 178.427 200.653 177.371 199.31 175.82C199.211 175.734 199.143 175.619 199.114 175.491C199.085 175.363 199.098 175.23 199.151 175.11C199.203 174.99 199.292 174.89 199.406 174.825C199.519 174.759 199.65 174.731 199.78 174.745C199.942 174.762 200.091 174.84 200.195 174.965C201.327 176.371 202.906 177.347 204.67 177.73L205.5 170.81C201.955 169.585 200.61 168.07 200.895 165.645C201.18 163.22 203.535 161.575 206.505 161.85L206.615 160.93C206.635 160.777 206.713 160.639 206.834 160.542C206.954 160.446 207.107 160.401 207.26 160.415V160.415ZM205.645 169.575L206.42 162.95C204.06 162.72 202.345 163.95 202.14 165.695C201.945 167.345 202.6 168.455 205.645 169.575V169.575ZM206.535 171.18L205.75 177.88C208.18 178.115 209.925 176.88 210.14 175.05C210.34 173.375 209.61 172.255 206.535 171.18V171.18Z" fill="#DBDBDB"/>
<path d="M207.395 142.445L214.075 142.305L217.365 142.25C218.46 142.225 219.545 142.25 220.635 142.22L220.415 142.445L220.385 136.85L220.635 137.1L214 137.07C211.795 137.07 209.59 137.01 207.38 136.985L207.52 136.85C207.52 137.765 207.475 138.685 207.45 139.62L207.395 142.445ZM207.395 142.445L207.325 139.675C207.325 138.745 207.27 137.8 207.26 136.85V136.715H207.395C209.605 136.69 211.81 136.635 214.015 136.63L220.635 136.6H220.885V136.85V142.445V142.67H220.66C219.545 142.67 218.425 142.67 217.315 142.64L213.985 142.585L207.395 142.445Z" fill="#EBEBEB"/>
<path d="M214.78 149.5L221.46 149.36L224.75 149.305C225.845 149.28 226.93 149.305 228.02 149.275L227.8 149.5L227.775 143.905L228.02 144.155L221.4 144.125C219.195 144.125 216.99 144.065 214.78 144.04L214.92 143.905C214.92 144.82 214.875 145.74 214.855 146.675L214.78 149.5ZM214.78 149.5L214.71 146.73C214.71 145.8 214.655 144.855 214.645 143.905V143.77H214.78C216.99 143.745 219.195 143.69 221.4 143.685L228.02 143.655H228.275V143.905L228.245 149.5V149.725H228C226.885 149.725 225.77 149.725 224.655 149.695L221.325 149.64L214.78 149.5Z" fill="#EBEBEB"/>
<path d="M200 149.5L206.68 149.36L209.97 149.305C211.06 149.28 212.15 149.305 213.24 149.275L213.02 149.5L213 143.905L213.25 144.155L206.63 144.125C204.425 144.125 202.215 144.065 200.01 144.04L200.145 143.905C200.145 144.82 200.105 145.74 200.08 146.675L200 149.5ZM200 149.5L199.93 146.73C199.905 145.8 199.875 144.855 199.865 143.905V143.77H200C202.205 143.745 204.415 143.69 206.62 143.685L213.24 143.655H213.49V143.905L213.5 149.5V149.725H213.28C212.165 149.725 211.045 149.725 209.935 149.695L206.605 149.64L200 149.5Z" fill="#EBEBEB"/>
<path d="M29.365 149.5L36.04 149.36L39.33 149.305C40.425 149.28 41.515 149.305 42.605 149.275L42.38 149.5L42.355 143.905L42.605 144.155L36 144.125C33.79 144.125 31.585 144.065 29.38 144.04L29.515 143.905C29.515 144.82 29.47 145.74 29.45 146.675L29.365 149.5ZM29.365 149.5L29.29 146.73C29.29 145.8 29.235 144.855 29.225 143.905V143.77H29.365C31.57 143.745 33.775 143.69 35.985 143.685L42.605 143.655H42.855V143.905L42.825 149.5V149.725H42.605C41.49 149.725 40.37 149.725 39.255 149.695L35.925 149.64L29.365 149.5Z" fill="#EBEBEB"/>
<path d="M29.365 23.885L36.04 23.745L39.33 23.685C40.425 23.685 41.515 23.685 42.605 23.685L42.38 23.91L42.355 18.315L42.605 18.56L36 18.5C33.79 18.5 31.585 18.445 29.38 18.42L29.515 18.285C29.515 19.2 29.47 20.12 29.45 21.05L29.365 23.885ZM29.365 23.885L29.29 21.115C29.29 20.18 29.235 19.235 29.225 18.29V18.155H29.365C31.57 18.155 33.775 18.075 35.985 18.075L42.605 18.045H42.855V18.3L42.825 23.895V24.115H42.605C41.49 24.115 40.37 24.115 39.255 24.09L35.925 24L29.365 23.885Z" fill="#EBEBEB"/>
<path d="M22 30.94L28.675 30.8L31.965 30.74C33.06 30.74 34.145 30.74 35.24 30.74L35.015 30.965V25.37L35.265 25.615L28.6 25.56C26.39 25.56 24.185 25.5 22 25.5L22.135 25.365C22.135 26.28 22.09 27.2 22.07 28.13L22 30.94ZM22 30.94L21.925 28.17C21.925 27.235 21.87 26.29 21.86 25.345V25.21H22C24.205 25.21 26.41 25.13 28.62 25.13L35.24 25.1H35.49V25.355L35.46 30.95V31.17H35.24C34.12 31.17 33.005 31.17 31.89 31.17L28.56 31.11L22 30.94Z" fill="#EBEBEB"/>
<path d="M214.78 23.89L221.46 23.75L224.75 23.695C225.845 23.695 226.93 23.695 228.02 23.665L227.8 23.89L227.775 18.295L228.02 18.545L221.4 18.5C219.195 18.5 216.99 18.445 214.78 18.42L214.92 18.285C214.92 19.2 214.875 20.12 214.855 21.05L214.78 23.89ZM214.78 23.89L214.71 21.12C214.71 20.185 214.655 19.245 214.645 18.295V18.16H214.78C216.99 18.135 219.195 18.085 221.4 18.08L228 18.045H228.255V18.295L228.23 23.89V24.115H228C226.885 24.115 225.77 24.115 224.655 24.115L221.325 24.06L214.78 23.89Z" fill="#EBEBEB"/>
<path d="M143.105 61.415L136.43 61.555L133.14 61.61C132.045 61.61 130.955 61.61 129.865 61.64L130.09 61.415L130.115 67.01L129.865 66.76L136.485 66.795C138.695 66.795 140.9 66.85 143.105 66.875L142.97 67.01C142.97 66.095 143.015 65.175 143.035 64.245L143.105 61.415ZM143.105 61.415L143.18 64.185C143.18 65.12 143.235 66.06 143.245 67.01V67.145H143.105C140.9 67.145 138.695 67.22 136.485 67.225L129.865 67.255H129.615V67L129.645 61.405V61.18H129.865C130.98 61.18 132.1 61.18 133.215 61.18L136.545 61.235L143.105 61.415Z" fill="#EBEBEB"/>
<path d="M135.72 54.36L129.045 54.5L125.755 54.555C124.66 54.555 123.57 54.555 122.48 54.585L122.705 54.36L122.73 59.955L122.48 59.705L129.1 59.74C131.305 59.74 133.515 59.795 135.72 59.82L135.585 59.955C135.585 59.04 135.625 58.12 135.65 57.19L135.72 54.36ZM135.72 54.36L135.79 57.13C135.815 58.065 135.85 59.005 135.855 59.955V60.09H135.715C133.51 60.09 131.3 60.165 129.095 60.17L122.475 60.2H122.225V59.95L122.255 54.355V54.13H122.5C123.615 54.13 124.735 54.13 125.85 54.13L129.18 54.185L135.72 54.36Z" fill="#EBEBEB"/>
<path d="M212.01 0H211.51V59.615H212.01V0Z" fill="#C7C7C7"/>
<path d="M191.06 79.565L192.725 83.225H230.8L232.46 79.565L216.25 68.345H207.27L191.06 79.565Z" fill="#EBEBEB"/>
<path d="M206.145 57.535L207.27 68.345H216.25L217.375 57.535H206.145Z" fill="#DBDBDB"/>
<path d="M191.065 79.57L192.73 83.23H230.805L232.465 79.57H191.065Z" fill="#DBDBDB"/>
<path d="M167.565 0H167.065V47.805H167.565V0Z" fill="#C7C7C7"/>
<path d="M146.615 67.76L148.28 71.42H186.355L188.015 67.76L171.805 56.54H162.825L146.615 67.76Z" fill="#EBEBEB"/>
<path d="M161.7 45.73L162.825 56.54H171.805L172.93 45.73H161.7Z" fill="#DBDBDB"/>
<path d="M146.615 67.76L148.28 71.42H186.355L188.015 67.76H146.615Z" fill="#DBDBDB"/>
<path d="M22.65 200.5L48.24 200.38L73.825 200.335L125 200.25L176.175 200.335L201.76 200.375L227.345 200.5L201.76 200.62L176.175 200.665L125 200.75L73.825 200.665L48.24 200.62L22.65 200.5Z" fill="#263238"/>
<path d="M125 222.625C176.023 222.625 217.385 219.565 217.385 215.79C217.385 212.015 176.023 208.955 125 208.955C73.9772 208.955 32.615 212.015 32.615 215.79C32.615 219.565 73.9772 222.625 125 222.625Z" fill="#EBEBEB"/>
<path d="M145 160.5V160.57C145 160.57 145 160.6 145 160.62C145 160.64 145 160.7 144.975 160.755V160.845C144.959 160.909 144.947 160.974 144.94 161.04C144.94 161.085 144.94 161.13 144.915 161.18C144.89 161.23 144.88 161.39 144.855 161.51C144.83 161.63 144.78 161.915 144.74 162.155L144.515 163.375C144.49 163.505 144.465 163.645 144.44 163.79C144.415 163.935 144.37 164.18 144.33 164.385C144.29 164.59 144.25 164.845 144.205 165.09C144.175 165.26 144.14 165.435 144.11 165.615C144.015 166.15 143.915 166.72 143.8 167.33C143.798 167.345 143.798 167.36 143.8 167.375C143.68 168.055 143.55 168.785 143.41 169.55C143.375 169.75 143.335 169.95 143.295 170.15C143.255 170.35 143.215 170.57 143.18 170.78C143.18 170.91 143.135 171.045 143.105 171.18C142.915 172.243 142.71 173.37 142.49 174.56C142.415 174.96 142.345 175.365 142.27 175.775C142.125 176.575 141.975 177.395 141.82 178.24C141.78 178.435 141.745 178.63 141.715 178.83C141.488 180.053 141.257 181.327 141.02 182.65C140.99 182.785 140.97 182.92 140.945 183.055C140.83 183.675 140.715 184.3 140.605 184.94C140.59 184.989 140.58 185.039 140.575 185.09L140.41 186C140.19 187.22 139.963 188.468 139.73 189.745C139.67 190.06 139.61 190.38 139.555 190.705C139.44 191.35 139.32 192 139.2 192.655C139.05 193.47 138.9 194.29 138.75 195.125C138.6 195.96 138.45 196.795 138.295 197.625C138.215 198.05 138.14 198.475 138.06 198.9C137.97 199.4 137.875 199.9 137.785 200.435H94.57C99.9 178.29 104.395 160.435 104.395 160.435L145 160.5Z" fill="#263238"/>
<path d="M138.47 165.5C136.307 177.167 134.12 188.833 131.91 200.5H131.31C133.605 188.805 135.97 177.13 138.31 165.45C138.345 165.34 138.5 165.385 138.47 165.5Z" fill="#263238"/>
<path d="M145 160.5C145 160.5 145 160.525 145 160.57C145 160.615 145 160.6 145 160.62C145 160.64 145 160.7 144.975 160.755V160.845C144.959 160.909 144.947 160.974 144.94 161.04C144.94 161.085 144.94 161.13 144.915 161.18C144.89 161.23 144.875 161.39 144.855 161.51C144.835 161.63 144.78 161.915 144.74 162.155C144.67 162.51 144.6 162.915 144.515 163.375C144.49 163.505 144.465 163.645 144.44 163.79C144.415 163.935 144.37 164.18 144.33 164.385C144.29 164.59 144.25 164.845 144.205 165.09C144.175 165.26 144.14 165.435 144.11 165.615C144.01 166.15 143.91 166.72 143.8 167.33C143.798 167.345 143.798 167.36 143.8 167.375C143.675 168.055 143.545 168.775 143.405 169.54C143.365 169.74 143.33 169.945 143.295 170.15C143.26 170.355 143.215 170.57 143.18 170.78C143.15 170.91 143.13 171.045 143.105 171.18C142.91 172.24 142.705 173.37 142.49 174.56C142.415 174.96 142.345 175.365 142.27 175.775C142.12 176.575 141.97 177.395 141.82 178.24C141.78 178.435 141.745 178.63 141.715 178.83C141.485 180.06 141.253 181.333 141.02 182.65C140.99 182.785 140.97 182.92 140.945 183.055C140.83 183.675 140.715 184.3 140.605 184.94C140.59 184.989 140.58 185.039 140.575 185.09L140.41 186C140.183 187.22 139.957 188.468 139.73 189.745C139.67 190.06 139.61 190.38 139.555 190.705C139.435 191.35 139.32 192 139.2 192.655C139.05 193.47 138.9 194.29 138.75 195.125C138.6 195.96 138.445 196.795 138.295 197.625C138.215 198.05 138.14 198.475 138.06 198.9C137.97 199.4 137.875 199.9 137.78 200.435H116.09L114.355 182.675L114.295 182.045L114.225 181.365L113.885 177.89L113.59 174.89L112.18 160.5H145Z" fill="#455A64"/>
<path d="M169.55 200.5H122.945C122.865 196.21 122.78 192.06 122.675 188.145C122.675 188.05 122.675 187.955 122.675 187.86C122.675 187.86 117.235 184.64 114.305 182.115C113.807 181.705 113.348 181.25 112.935 180.755C111.06 178.365 109.18 169.175 105.29 160.53H162.29C171.55 178.5 170.9 192.94 169.55 200.5Z" fill="#263238"/>
<path d="M111.58 180.12C114.35 181.255 116.845 183 119.305 184.685C121.865 186.43 124.21 188.45 126.67 190.325C126.765 190.4 126.67 190.555 126.57 190.485C123.975 188.83 121.26 187.375 118.695 185.67C116.195 184.015 113.615 182.405 111.455 180.32C111.37 180.24 111.465 180.07 111.58 180.12Z" fill="#455A64"/>
<path d="M111.23 164.085C111.56 165.86 111.99 167.62 112.375 169.385C112.73 171.04 112.995 172.725 113.435 174.385C113.792 175.969 114.598 177.416 115.755 178.555C116.405 179.16 117.12 179.695 117.81 180.245C118.185 180.545 118.585 180.83 118.975 181.135C118.925 180.9 118.885 180.635 118.84 180.42L118.495 178.42C118.245 176.92 117.995 175.42 117.775 173.92C117.325 170.975 116.915 168 116.275 165.085C116.273 165.063 116.279 165.041 116.292 165.023C116.304 165.004 116.323 164.991 116.344 164.985C116.366 164.979 116.388 164.981 116.409 164.99C116.429 164.999 116.445 165.015 116.455 165.035C117.19 167.925 118 170.785 118.64 173.7C118.955 175.125 120.07 182.2 120.14 182.7C120.21 183.2 120.235 183.735 120.255 184.25C120.322 184.776 120.322 185.309 120.255 185.835C120.245 185.859 120.228 185.879 120.207 185.893C120.186 185.907 120.161 185.915 120.135 185.915C120.109 185.915 120.084 185.907 120.063 185.893C120.042 185.879 120.025 185.859 120.015 185.835V185.835C119.801 185.346 119.652 184.832 119.57 184.305C119.44 183.805 119.325 183.305 119.235 182.775C119.2 182.595 119.175 182.405 119.15 182.215C118.455 181.79 117.81 181.215 117.15 180.765C116.49 180.315 115.735 179.765 115.075 179.205C113.849 178.172 112.965 176.791 112.54 175.245C112.113 173.583 111.836 171.886 111.71 170.175C111.485 168.175 111.32 166.175 111.04 164.175C111.03 164 111.205 163.965 111.23 164.085Z" fill="#455A64"/>
<path d="M158.655 176.445C157.91 176.06 155.03 176.745 149.78 175.85C148.753 175.717 147.778 175.321 146.95 174.7C145.585 173.585 144.55 171.79 143.72 170.255C142.734 168.526 141.975 166.678 141.46 164.755C141.435 164.635 141.27 164.695 141.29 164.805C141.485 165.89 141.59 166.975 141.88 168.05C142.164 169.059 142.527 170.043 142.965 170.995C143.755 172.775 144.68 174.685 146.28 175.89C147.955 177.15 150.28 177.39 152.32 177.53C153.49 177.61 158.095 177.485 158.715 176.83C158.739 176.802 158.756 176.769 158.766 176.733C158.775 176.698 158.777 176.66 158.772 176.624C158.766 176.588 158.753 176.553 158.733 176.522C158.712 176.491 158.686 176.465 158.655 176.445V176.445Z" fill="#455A64"/>
<path d="M115.28 96.38C110.48 103.475 77.14 146.205 72.315 147.08C60.02 149.295 48.76 145.08 53.405 134.49C58.815 122.16 88.905 97.715 108.955 86.89C123.315 79.135 120 89.375 115.28 96.38Z" fill="#EE8B4C"/>
<path d="M99 119.94L72.85 107.94C72.85 107.94 97.045 91.12 108.35 86C120.16 80.665 124.935 83.785 114.85 97.665C104.955 111.325 99 119.94 99 119.94Z" fill="#455A64"/>
<path d="M86.775 98.63C86.7198 98.6621 86.6663 98.6971 86.615 98.735L106.96 108.665L107.06 108.525L86.775 98.63ZM81.15 102.325C81.0965 102.355 81.0447 102.389 80.995 102.425L103.57 113.425L103.665 113.29L81.15 102.325ZM75.605 106.055L75.45 106.16L100.205 118.24C100.23 118.195 100.265 118.15 100.295 118.105L75.605 106.055Z" fill="white"/>
<path d="M99.325 114.63C98.7243 114.288 98.1069 113.976 97.475 113.695L95.57 112.76C94.285 112.13 92.99 111.52 91.685 110.92C89.09 109.715 86.495 108.5 83.88 107.345C83.16 107.025 82.435 106.705 81.71 106.41C80.985 106.115 80.155 105.83 79.39 105.515C79.345 105.515 79.32 105.565 79.365 105.59C80 105.905 80.61 106.275 81.24 106.59C81.87 106.905 82.545 107.235 83.2 107.55C84.4966 108.16 85.7966 108.763 87.1 109.36C89.665 110.525 92.23 111.7 94.82 112.81C95.545 113.125 96.27 113.425 96.995 113.735C97.72 114.045 98.495 114.435 99.29 114.685C99.33 114.71 99.365 114.65 99.325 114.63Z" fill="#263238"/>
<path d="M114.89 97.65C104.955 111.325 99 119.94 99 119.94L90.64 116.095L119.3 84.095C121.5 85.6 120.46 90 114.89 97.65Z" fill="#263238"/>
<path d="M100.11 170.08H167.56C167.56 170.08 157.255 105.72 132.39 83.71C129.32 80.99 122.39 81.61 117.89 83.855C116.275 84.66 110.48 92.765 108.825 100.435C107.17 108.105 99.925 169.85 100.11 170.08Z" fill="#455A64"/>
<path d="M161.43 142.6L131.5 83.075C131.818 83.2549 132.116 83.4677 132.39 83.71C146.5 96.2 155.92 122.33 161.43 142.6Z" fill="#263238"/>
<path d="M129.5 82.275H122.64C122.96 82.215 123.275 82.16 123.595 82.11H128.69C128.96 82.155 129.22 82.21 129.5 82.275ZM136.55 87.895H114.41C114.375 87.95 114.34 88.005 114.3 88.06H136.665L136.55 87.895ZM141 93.68H111.155L111.08 93.845H141.11L141 93.68ZM144.64 99.465H109.035C109.035 99.52 109.005 99.575 108.99 99.63H144.74L144.64 99.465ZM147.76 105.25H108C108 105.305 108 105.36 107.975 105.415H147.845C147.815 105.36 147.785 105.305 147.76 105.25ZM150.5 111.035H107.19C107.19 111.09 107.19 111.145 107.19 111.2H150.585C150.545 111.145 150.5 111.09 150.5 111.035ZM152.945 116.825H106.445C106.445 116.88 106.445 116.935 106.445 116.985H153C153 116.93 152.96 116.875 152.94 116.825H152.945ZM155.15 122.61H105.68C105.68 122.665 105.68 122.715 105.68 122.77H155.2C155.185 122.715 155.165 122.665 155.145 122.61H155.15ZM157.15 128.395H104.955C104.955 128.45 104.955 128.505 104.955 128.56H157.21C157.195 128.5 157.18 128.45 157.16 128.395H157.15ZM159 134.18H104.24C104.24 134.235 104.24 134.29 104.24 134.345H159.055C159.04 134.29 159 134.235 159 134.18ZM160.7 139.965H103.54C103.54 140.02 103.54 140.075 103.54 140.13H160.75L160.7 139.965ZM162.27 145.75H102.845C102.845 145.805 102.845 145.86 102.845 145.915H162.345C162.3 145.86 162.285 145.805 162.275 145.75H162.27ZM163.715 151.535H102.16C102.16 151.59 102.16 151.645 102.16 151.7H163.76C163.745 151.645 163.735 151.59 163.72 151.535H163.715ZM165.045 157.32H101.5C101.5 157.375 101.5 157.43 101.5 157.485H165.085C165.075 157.43 165.065 157.375 165.05 157.32H165.045ZM166.265 163.105H100.825C100.825 163.16 100.825 163.215 100.825 163.27H166.325L166.265 163.105ZM167.355 168.89H100.2V169.055H167.4C167.38 169 167.37 168.945 167.36 168.89H167.355Z" fill="white"/>
<path d="M144.09 85.33C161.09 91.615 202.95 108.295 205.09 118.055C206.65 125.23 174.71 129.69 173.8 128.53C173.085 127.61 143.425 104.505 132.97 92.07C123.88 81.27 138.655 83.32 144.09 85.33Z" fill="#EE8B4C"/>
<path d="M156.935 114.74L179.33 99.24C179.33 99.24 152.57 86.9 140.52 83.84C127.96 80.65 123.805 84.55 136.16 96.455C148.33 108.165 156.935 114.74 156.935 114.74Z" fill="#455A64"/>
<path d="M162.775 91.97L145.415 105.03C145.46 105.065 145.495 105.105 145.54 105.135L162.955 92.04L162.775 91.97ZM168.915 94.59L149.865 108.92L149.99 109.03L169.095 94.665C169.035 94.64 169 94.61 168.915 94.59ZM175 97.255L154.43 112.755C154.471 112.793 154.514 112.828 154.56 112.86L175.17 97.36C175.111 97.3294 175.054 97.2943 175 97.255Z" fill="white"/>
<path d="M173.15 98.175C172.55 98.505 171.985 98.92 171.415 99.305C170.845 99.69 170.245 100.095 169.655 100.485C168.465 101.28 167.285 102.1 166.11 102.92C163.77 104.565 161.415 106.2 159.11 107.885C158.475 108.345 157.84 108.81 157.215 109.29C156.59 109.77 155.935 110.345 155.28 110.85C155.24 110.88 155.28 110.935 155.33 110.91C155.92 110.52 156.55 110.18 157.145 109.79C157.74 109.4 158.36 108.99 158.96 108.575C160.14 107.765 161.31 106.945 162.46 106.115C164.755 104.48 167.06 102.85 169.32 101.165L171.21 99.75C171.87 99.25 172.57 98.79 173.185 98.25C173.225 98.21 173.195 98.15 173.15 98.175Z" fill="#263238"/>
<path d="M154.865 112.965C154.235 112.435 153.65 111.855 153.04 111.305C152.43 110.755 151.8 110.21 151.185 109.66C149.98 108.59 148.76 107.535 147.55 106.465C145.105 104.295 142.66 102.12 140.24 99.925C138.865 98.675 137.515 97.39 136.095 96.19L136.065 96.22C137.18 97.425 138.38 98.56 139.565 99.69C139.315 99.535 139.065 99.375 138.825 99.19C138.585 99.005 138.295 98.81 138.04 98.605C137.785 98.4 137.54 98.17 137.25 97.98C137.205 97.95 137.165 98.01 137.195 98.045C137.644 98.5758 138.174 99.033 138.765 99.4C139.055 99.595 139.36 99.77 139.665 99.935L140 100.09C141.06 101.09 142.127 102.09 143.2 103.09C145.6 105.303 148.048 107.47 150.545 109.59C151.235 110.17 151.93 110.74 152.63 111.31C153.33 111.88 154.1 112.43 154.815 113.015C154.85 113.055 154.9 113 154.865 112.965Z" fill="#263238"/>
<path d="M120.035 96.21C124 96.71 130.035 90.115 132.145 85.05C132.29 84.7 131.425 81.29 130.565 77.095C130.065 74.55 129.565 71.7 129.275 69.07C129.22 68.53 113.185 74.81 113.185 74.81C113.185 74.81 115.385 80.155 115.84 84.745C115.873 85.1093 115.873 85.4757 115.84 85.84C115.84 85.89 115.84 85.95 115.84 86.02C115.715 88.105 116.205 95.715 120.035 96.21Z" fill="#EE8B4C"/>
<path d="M117.54 85.93C116.975 86.0074 116.405 86.0375 115.835 86.02C115.835 85.95 115.835 85.89 115.835 85.835C115.872 85.4726 115.872 85.1074 115.835 84.745C115.385 80.16 113.19 74.81 113.19 74.81C113.19 74.81 126.19 69.71 128.82 69.095C128.63 72.19 127.25 84.695 117.54 85.93Z" fill="#263238"/>
<path d="M127.5 48.665C130.825 53.84 132.44 71.05 129.44 75.83C125.09 82.765 115.67 85.965 109.2 80.21C102.925 74.635 101.2 52.17 104.78 47.59C110 40.84 122.58 41 127.5 48.665Z" fill="#EE8B4C"/>
<path d="M116.815 63.69C116.815 63.645 116.915 63.74 116.915 63.785C116.995 64.95 117.28 66.285 118.365 66.545C118.4 66.545 118.4 66.615 118.365 66.61C117.065 66.56 116.705 64.805 116.815 63.69Z" fill="#263238"/>
<path d="M117.73 62.38C119.58 62.055 120.095 65.775 118.385 66.08C116.675 66.385 116.18 62.655 117.73 62.38Z" fill="#263238"/>
<path d="M109.725 64.5C109.725 64.46 109.64 64.57 109.65 64.615C109.845 65.765 109.875 67.115 108.885 67.64C108.855 67.64 108.885 67.715 108.885 67.7C110.155 67.36 110.095 65.575 109.725 64.5Z" fill="#263238"/>
<path d="M108.525 63.455C106.655 63.57 107.025 67.31 108.76 67.205C110.495 67.1 110.1 63.36 108.525 63.455Z" fill="#263238"/>
<path d="M118.965 60.5C118.46 60.4219 117.959 60.3184 117.465 60.19C116.912 60.1583 116.385 59.9457 115.965 59.585C115.858 59.446 115.8 59.2755 115.8 59.1C115.8 58.9246 115.858 58.754 115.965 58.615C116.465 58.04 117.2 58.02 117.905 58.115C118.616 58.2111 119.266 58.5674 119.73 59.115C119.839 59.2465 119.906 59.4078 119.922 59.5778C119.938 59.7478 119.902 59.9187 119.819 60.0682C119.737 60.2177 119.611 60.3388 119.459 60.4158C119.306 60.4928 119.134 60.5222 118.965 60.5V60.5Z" fill="#263238"/>
<path d="M106.83 61.78C107.315 61.6096 107.791 61.4126 108.255 61.19C108.785 61.053 109.256 60.7456 109.595 60.315C109.675 60.1583 109.7 59.9796 109.668 59.8068C109.635 59.634 109.546 59.4768 109.415 59.36C108.825 58.89 108.09 59.01 107.415 59.265C106.734 59.4955 106.164 59.9715 105.815 60.6C105.744 60.7488 105.717 60.9152 105.739 61.0789C105.761 61.2425 105.83 61.3962 105.937 61.5214C106.045 61.6465 106.187 61.7376 106.345 61.7835C106.504 61.8294 106.672 61.8282 106.83 61.78V61.78Z" fill="#263238"/>
<path d="M119.225 73.88C118.99 74.19 118.765 74.6 118.35 74.69C117.92 74.7416 117.484 74.7025 117.07 74.575C117.062 74.5729 117.053 74.5735 117.045 74.5767C117.037 74.5799 117.031 74.5856 117.026 74.5928C117.022 74.6001 117.02 74.6086 117.02 74.617C117.021 74.6255 117.024 74.6336 117.03 74.64C117.226 74.8435 117.474 74.9903 117.747 75.0651C118.019 75.1399 118.307 75.1398 118.58 75.065C118.807 74.9702 119 74.8105 119.137 74.6058C119.273 74.4012 119.345 74.1608 119.345 73.915C119.355 73.85 119.26 73.835 119.225 73.88Z" fill="#263238"/>
<path d="M117.535 70.595C117.306 71.0916 116.977 71.5355 116.568 71.8986C116.16 72.2617 115.68 72.5363 115.16 72.705C114.707 72.8596 114.233 72.9472 113.755 72.965C113.663 72.9724 113.572 72.9724 113.48 72.965H113.225C113.162 72.9614 113.101 72.9376 113.053 72.8971C113.004 72.8566 112.97 72.8015 112.955 72.74V72.74C112.95 72.7001 112.95 72.6599 112.955 72.62V72.52C112.81 71.635 112.71 70.275 112.71 70.275C112.405 70.48 110.855 71.455 110.82 70.985C110.515 67.115 110.18 62.81 110.695 58.895C110.7 58.8704 110.714 58.8485 110.733 58.8327C110.753 58.8169 110.777 58.8083 110.802 58.8083C110.828 58.8083 110.852 58.8169 110.872 58.8327C110.891 58.8485 110.905 58.8704 110.91 58.895C111.345 62.605 111.13 66.365 111.51 70.095C112.061 69.7424 112.658 69.4681 113.285 69.28C113.42 69.28 113.435 71.915 113.53 72.305C113.529 72.3183 113.529 72.3317 113.53 72.345C115.03 72.345 116.11 71.725 117.42 70.525C117.5 70.43 117.595 70.5 117.535 70.595Z" fill="#263238"/>
<path d="M114.215 72.445C114.791 73.0098 115.502 73.4177 116.28 73.63C116.708 73.7331 117.157 73.6999 117.565 73.535C118.455 73.165 118.36 72.315 118.09 71.615C117.943 71.2443 117.753 70.8919 117.525 70.565C116.65 71.5284 115.49 72.1871 114.215 72.445V72.445Z" fill="#263238"/>
<path d="M116.28 73.63C116.708 73.7331 117.157 73.6999 117.565 73.535C118.455 73.165 118.36 72.315 118.09 71.615C117.115 71.855 116.235 72.66 116.28 73.63Z" fill="#FF98B9"/>
<path d="M130.03 61.76C127 62.535 124.955 55.18 124.955 55.18C124.955 55.18 120.16 55.825 115.955 50.315C115.955 50.315 111.3 55.85 106.12 56.535C98 57.6 95 47.575 97.22 44.625C100.365 40.44 108.955 42.305 108.955 42.305C108.955 42.305 118.955 35.73 124.58 42.095C124.58 42.095 129.54 40.74 131.61 46.03C133.68 51.32 132.29 61.18 130.03 61.76Z" fill="#263238"/>
<path d="M126.295 55.695C123.969 56.0227 121.6 55.569 119.56 54.405C117.475 53.145 115.735 50.745 115.66 48.255C115.66 48.12 115.435 48.14 115.45 48.255C115.72 50.965 116.705 53.52 119.005 55.14C120.056 55.8978 121.287 56.3667 122.576 56.5001C123.865 56.6334 125.166 56.4265 126.35 55.9C126.366 55.8852 126.378 55.8662 126.384 55.8452C126.39 55.8242 126.39 55.802 126.384 55.7809C126.379 55.7598 126.367 55.7407 126.352 55.7255C126.336 55.7104 126.316 55.6998 126.295 55.695V55.695Z" fill="#263238"/>
<path d="M131 42.74C128.875 41.31 126.475 41.74 124.22 42.565C124.095 42.61 124.175 42.82 124.295 42.76C126.455 41.76 129.195 42.555 130.955 44.02C132.715 45.485 133.145 47.8 133.32 49.935C133.677 54.0566 132.494 58.1643 130 61.465C129.96 61.515 130.04 61.58 130.08 61.53C131.543 59.7861 132.634 57.7621 133.287 55.5818C133.941 53.4015 134.142 51.1109 133.88 48.85C133.595 46.635 132.94 44.06 131 42.74Z" fill="#263238"/>
<path d="M109.37 42.57C107.911 41.3233 106.044 40.656 104.125 40.695C101.812 40.8025 99.62 41.7605 97.97 43.385C97.3232 44.0575 96.8653 44.8886 96.6423 45.7945C96.4193 46.7005 96.4392 47.6492 96.7 48.545C97.23 50.665 98.83 52.305 100.525 53.545C100.529 53.5497 100.535 53.5534 100.541 53.5558C100.547 53.5582 100.553 53.5593 100.56 53.559C100.566 53.5588 100.573 53.5571 100.578 53.5541C100.584 53.5511 100.589 53.547 100.593 53.5419C100.597 53.5368 100.6 53.5309 100.601 53.5246C100.603 53.5183 100.603 53.5118 100.602 53.5055C100.601 53.4991 100.598 53.4931 100.594 53.4878C100.59 53.4826 100.586 53.4782 100.58 53.475C99.14 52.24 97.85 50.73 97.365 48.835C97.1059 47.9529 97.1013 47.0156 97.3516 46.131C97.602 45.2464 98.0971 44.4505 98.78 43.835C101.475 41.425 106.155 40.18 109.24 42.715C109.26 42.7221 109.281 42.7232 109.301 42.7181C109.322 42.713 109.34 42.702 109.354 42.6864C109.368 42.6708 109.377 42.6514 109.38 42.6307C109.383 42.6099 109.379 42.5888 109.37 42.57V42.57Z" fill="#263238"/>
<path d="M127.865 63.56C127.865 63.56 130.2 57.27 132.96 57.97C135.72 58.67 134.93 67.11 132.37 68.9C132.056 69.1495 131.696 69.3335 131.31 69.4414C130.924 69.5492 130.52 69.5786 130.122 69.5278C129.725 69.477 129.342 69.347 128.995 69.1456C128.649 68.9441 128.346 68.6753 128.105 68.355L127.865 63.56Z" fill="#EE8B4C"/>
<path d="M132.675 60.385C132.684 60.3827 132.693 60.3835 132.702 60.3873C132.71 60.3911 132.717 60.3976 132.721 60.4058C132.725 60.414 132.726 60.4234 132.724 60.4323C132.722 60.4413 132.717 60.4493 132.71 60.455C130.93 61.78 130.365 63.895 130.13 65.995C130.53 65.105 131.23 64.495 132.395 64.94C132.406 64.947 132.416 64.9573 132.421 64.9697C132.426 64.982 132.428 64.9957 132.425 65.0088C132.422 65.022 132.415 65.034 132.406 65.0431C132.396 65.0523 132.383 65.0582 132.37 65.06C131.992 65.04 131.617 65.1374 131.297 65.3388C130.976 65.5402 130.726 65.8358 130.58 66.185C130.34 66.7728 130.164 67.3846 130.055 68.01C130.01 68.21 129.665 68.2 129.675 67.975C129.678 67.9584 129.678 67.9415 129.675 67.925C128.97 65.405 130 61.345 132.675 60.385Z" fill="#263238"/>
<path d="M197.185 159.655C192.43 176.245 178.825 189.725 176.04 191.49C173.67 192.99 172.435 193.76 172.435 193.76C168.235 196.56 165.345 195.8 165.345 195.8C165.345 195.8 161.44 200.465 158.23 198.57C154.625 196.465 160.81 190.33 162.15 184.875C165.215 172.375 166.08 153.76 166.605 150.065L197.185 159.655Z" fill="#EE8B4C"/>
<path d="M174.565 174.035C173.59 177.695 172.725 181.315 171.26 184.825C169.65 188.675 167.46 192.11 165.315 195.66C165.305 195.681 165.302 195.705 165.308 195.728C165.314 195.751 165.327 195.771 165.347 195.785C165.366 195.799 165.389 195.805 165.413 195.803C165.436 195.802 165.458 195.791 165.475 195.775C170.38 189.96 173.95 181.64 174.885 174.11C174.91 173.925 174.615 173.855 174.565 174.035Z" fill="#263238"/>
<path d="M182.375 174.79C181.23 178.29 179.175 184.45 172.335 193.69C172.31 193.72 172.335 193.765 172.385 193.735C177.511 188.545 181.091 182.03 182.725 174.92C182.78 174.695 182.455 174.56 182.375 174.79Z" fill="#263238"/>
<path d="M164.89 169.585C164.645 167.8 163.705 167.915 162.085 170.68C160.465 173.445 156.405 185.76 152.23 183.98C148.055 182.2 154.035 164.905 157.085 160.51C160.135 156.115 166.585 150.065 166.585 150.065C166.115 153.665 165.76 162.5 164.89 169.585Z" fill="#EE8B4C"/>
<path d="M205.08 118.055C208.415 128.53 199.615 151.89 197.185 159.655C196.125 163.04 165.215 154 166.37 150.385C168.74 142.99 174.87 129.53 173.79 128.53C172.935 127.735 202.045 108.54 205.08 118.055Z" fill="#EE8B4C"/>
<path d="M182.26 122.23C181.85 122.39 181.44 122.515 181.04 122.73C180.64 122.945 180.215 123.115 179.82 123.33C179.054 123.759 178.325 124.251 177.64 124.8C176.949 125.336 176.294 125.917 175.68 126.54C175.36 126.86 175.05 127.19 174.755 127.54C174.456 127.861 174.194 128.215 173.975 128.595C173.964 128.613 173.958 128.634 173.958 128.655C173.958 128.676 173.964 128.697 173.975 128.715C173.975 128.715 173.975 128.75 174.005 128.755C174.135 128.81 174.21 128.7 174.305 128.62L174.775 128.185C175.105 127.88 175.425 127.555 175.775 127.245C176.44 126.63 177.14 126.04 177.86 125.485C178.58 124.93 179.32 124.405 180.07 123.9C180.445 123.645 180.815 123.4 181.195 123.135C181.575 122.87 181.95 122.635 182.34 122.41C182.415 122.34 182.355 122.19 182.26 122.23Z" fill="#263238"/>
<path d="M70.5 117.085C65.5 120.585 50.275 134.22 53.345 141.67C56.415 149.12 68.135 148.94 84.525 145.975L70.5 117.085Z" fill="#EE8B4C"/>
<path d="M70.06 117.41C76.775 111.815 86.53 105.02 90.525 105.235C94.715 105.46 109.41 106.85 112.72 108.27C116.03 109.69 125.55 118.955 126.525 122.025C127.305 124.485 122.475 126.805 116.345 122.86C110.61 119.17 109.42 118.005 107.55 117.36C105.68 116.715 98.31 118.13 97.42 120.91C96.895 122.55 99.02 126.975 101.975 127.91C104.93 128.845 107.975 127.09 112.14 127.315C116.305 127.54 120.305 131.65 119.5 133C118.695 134.35 116.83 133.625 111.145 135.525C107.49 136.75 103.145 138.95 96.96 142.59C90.625 146.315 81.46 146.25 81.46 146.25L70.06 117.41Z" fill="#EE8B4C"/>
<path d="M116.6 123.56C126.6 126.69 121.985 141.515 111.96 138.38C101.935 135.245 106.58 120.42 116.6 123.56Z" fill="#EE8B4C"/>
<path opacity="0.1" d="M116.6 123.56C126.6 126.69 121.985 141.515 111.96 138.38C101.935 135.245 106.58 120.42 116.6 123.56Z" fill="black"/>
<path d="M115.66 123.265C125.195 126.265 120.575 141.075 111.02 138.085C101.465 135.095 106.11 120.275 115.66 123.265Z" fill="#EE8B4C"/>
<path opacity="0.1" d="M107.105 130.25C106.82 132.955 108.06 135.775 111.415 136.825C119.345 139.325 123.18 127 115.265 124.525L115.11 124.48C122.51 126.98 118.83 138.595 111.27 136.23C109.984 135.881 108.862 135.09 108.101 133.997C107.339 132.904 106.987 131.577 107.105 130.25V130.25Z" fill="black"/>
<g opacity="0.1">
<path d="M114.78 126.06C114.843 126.086 114.894 126.135 114.922 126.197C114.95 126.26 114.953 126.331 114.93 126.395L114.775 126.8C115.402 127.109 115.923 127.596 116.275 128.2C116.306 128.241 116.327 128.288 116.336 128.339C116.345 128.389 116.341 128.441 116.325 128.49C116.296 128.557 116.243 128.61 116.175 128.638C116.108 128.666 116.033 128.667 115.965 128.64C115.897 128.616 115.841 128.565 115.81 128.5C115.522 127.972 115.085 127.539 114.555 127.255L113.455 130.08C114.865 130.995 115.285 131.82 114.9 132.805C114.49 133.875 113.295 134.305 112.02 133.835L111.715 134.62C111.703 134.653 111.684 134.683 111.66 134.708C111.636 134.734 111.607 134.755 111.575 134.769C111.543 134.783 111.508 134.791 111.473 134.792C111.438 134.793 111.403 134.787 111.37 134.775C111.337 134.763 111.307 134.744 111.282 134.72C111.256 134.696 111.235 134.667 111.221 134.635C111.207 134.603 111.199 134.568 111.198 134.533C111.197 134.498 111.203 134.463 111.215 134.43L111.52 133.635C110.703 133.243 110.04 132.59 109.635 131.78C109.61 131.743 109.594 131.701 109.588 131.656C109.583 131.612 109.589 131.567 109.605 131.525C109.634 131.46 109.685 131.409 109.75 131.38C109.815 131.351 109.888 131.348 109.955 131.37C110.022 131.396 110.078 131.446 110.11 131.51C110.439 132.237 111.007 132.83 111.72 133.19L112.835 130.32C111.45 129.4 111.04 128.6 111.43 127.595C111.82 126.59 113.015 126.145 114.255 126.595L114.405 126.215C114.417 126.178 114.436 126.144 114.462 126.116C114.489 126.087 114.521 126.065 114.556 126.05C114.592 126.035 114.631 126.029 114.669 126.03C114.708 126.032 114.746 126.042 114.78 126.06V126.06ZM113.075 129.805L114.14 127.055C113.14 126.695 112.285 127.03 112 127.755C111.715 128.48 111.895 129 113.075 129.805ZM113.28 130.59L112.2 133.375C113.2 133.745 114.095 133.415 114.395 132.65C114.695 131.885 114.5 131.39 113.28 130.59Z" fill="black"/>
</g>
<path d="M90.525 105.235C95.465 103.895 105.92 102.875 112.88 105.595C117.585 107.435 124.26 124.2 121.82 126.175C119.38 128.15 117.32 126.29 114.62 123.175C113.62 122.04 109.7 114.615 107.59 114.935C104.55 115.39 97.245 119.76 97.245 119.76L90.525 105.235Z" fill="#EE8B4C"/>
<path d="M122.34 125C123.09 121.195 121.025 116.92 118.73 112.93C118.69 112.87 118.595 112.93 118.63 112.98C119.215 113.98 122.28 121.24 122.265 125.005C122.265 125.055 122.33 125.045 122.34 125Z" fill="#263238"/>
<path d="M90.525 105.235C95.465 103.895 105.92 102.875 112.88 105.595C117.585 107.435 120.265 123.55 117.825 125.525C115.385 127.5 112.28 125 110.055 120.905C109.335 119.58 108.055 113.905 105.96 114.205C102.92 114.665 95.46 115.86 95.46 115.86L90.525 105.235Z" fill="#EE8B4C"/>
<path d="M99.925 115C100.71 114.795 100.985 114.72 101.775 114.525C102.565 114.33 103.35 114.155 104.15 114.025C104.839 113.854 105.553 113.802 106.26 113.87C106.922 114.02 107.517 114.382 107.955 114.9C108.99 116.03 109.355 117.675 109.81 119.095C110.31 120.685 111.635 123.695 113.495 125.065C113.986 125.463 114.555 125.755 115.165 125.92C115.612 126.065 116.088 126.096 116.55 126.01C118.425 125.43 118.8 123.17 118.78 121.305C118.74 117.805 117.63 114.305 116.36 111.11C116.05 110.325 115.72 109.545 115.39 108.765C115.07 107.848 114.559 107.009 113.89 106.305C112.715 105.22 109.695 104.66 108.76 104.475C108.69 104.475 108.725 104.355 108.795 104.37C109.93 104.575 113.065 104.74 114.885 106.57C115.545 107.24 115.885 108.19 116.255 109.04C116.625 109.89 117.035 110.835 117.385 111.75C118.085 113.518 118.645 115.339 119.06 117.195C119.435 118.955 119.765 120.91 119.47 122.695C119.215 124.25 118.14 125.815 116.585 126.275C115.28 126.67 113.98 125.865 113.41 125.47C112.851 125.077 112.346 124.611 111.91 124.085C111.012 122.834 110.207 121.518 109.5 120.15C108.84 118.8 108.545 117.26 107.775 115.97C107.603 115.656 107.371 115.379 107.091 115.156C106.811 114.933 106.489 114.768 106.145 114.67C105.446 114.565 104.734 114.565 104.035 114.67C102.688 114.724 101.349 114.901 100.035 115.2C99.69 115.285 99.595 115.07 99.925 115Z" fill="#263238"/>
<path d="M86.72 106.2C88.04 105.42 95.57 100.7 98.53 99.87C101.49 99.04 113.06 97.435 115.375 100.07C118.285 103.385 109.595 106.15 105.705 107.005C101.815 107.86 98.385 112.215 98.385 112.215L86.72 106.2Z" fill="#EE8B4C"/>
<path d="M111.705 105.175C110.401 105.413 109.109 105.717 107.835 106.085C106.603 106.349 105.393 106.705 104.215 107.15C103.088 107.675 102.054 108.381 101.155 109.24C100.7 109.655 100.28 110.09 99.865 110.54C99.45 110.99 99 111.57 98.54 112.04C98.49 112.09 98.54 112.175 98.615 112.12C99.4972 111.273 100.432 110.483 101.415 109.755C102.413 108.979 103.503 108.33 104.66 107.82C106.965 106.82 109.45 106.32 111.76 105.32C111.855 105.295 111.795 105.16 111.705 105.175Z" fill="#263238"/>
<path d="M117.23 125.73C118.12 126.23 119.125 126.73 120.18 126.685C120.631 126.672 121.068 126.526 121.435 126.265C121.627 126.126 121.796 125.957 121.935 125.765C122.101 125.571 122.193 125.325 122.195 125.07C122.195 125 122.29 125.005 122.275 125.07C122.252 125.212 122.238 125.356 122.235 125.5C122.214 125.62 122.18 125.737 122.135 125.85C122.048 126.073 121.917 126.277 121.75 126.45C121.379 126.829 120.891 127.07 120.365 127.135C119.12 127.305 118.03 126.635 117.175 125.815C117.169 125.811 117.165 125.807 117.161 125.801C117.157 125.796 117.154 125.79 117.153 125.783C117.152 125.777 117.151 125.77 117.153 125.763C117.154 125.757 117.156 125.751 117.16 125.745C117.164 125.739 117.168 125.735 117.174 125.731C117.179 125.727 117.185 125.724 117.192 125.723C117.198 125.722 117.205 125.721 117.212 125.723C117.218 125.724 117.224 125.726 117.23 125.73V125.73Z" fill="#263238"/>
<path d="M97.18 113.765C96.093 115.334 95.1076 116.97 94.23 118.665C93.3913 120.35 92.7986 122.147 92.47 124C92.155 126 92.32 128 92.365 130.04C92.4068 131.003 92.3683 131.968 92.25 132.925C92.1281 133.759 91.9169 134.577 91.62 135.365C90.902 137.14 89.7522 138.707 88.275 139.925C88.22 139.975 88.275 140.065 88.355 140.025C89.752 139.057 90.9193 137.794 91.7747 136.325C92.63 134.856 93.1524 133.218 93.305 131.525C93.485 129.455 93.135 127.38 93.305 125.305C93.4798 123.416 93.8966 121.558 94.545 119.775C95.2558 117.694 96.1615 115.685 97.25 113.775C97.2507 113.77 97.2504 113.766 97.2493 113.761C97.2481 113.757 97.2461 113.753 97.2433 113.749C97.2405 113.745 97.237 113.742 97.233 113.74C97.229 113.737 97.2246 113.736 97.22 113.735C97.2107 113.734 97.2013 113.736 97.1938 113.742C97.1863 113.747 97.1813 113.756 97.18 113.765V113.765Z" fill="#263238"/>
<path d="M78.915 110.64C75.0314 113.009 71.3325 115.668 67.85 118.595C64.3269 121.47 61.14 124.734 58.35 128.325C56.8064 130.361 55.4572 132.537 54.32 134.825C54.295 134.87 54.36 134.905 54.39 134.86C55.5504 132.919 56.8383 131.056 58.245 129.285C59.6373 127.527 61.1245 125.846 62.7 124.25C65.9219 121.038 69.3799 118.071 73.045 115.375C75.105 113.825 76.995 112.345 79.045 110.79C79.235 110.64 79.135 110.5 78.915 110.64Z" fill="#263238"/>
<path d="M136.685 206.235C136.65 206.44 136.61 206.645 136.57 206.855C136.605 206.65 136.645 206.44 136.68 206.235H136.685Z" fill="#EBEBEB"/>
<path d="M57.37 150.96C50.615 160.105 43.575 170.72 41.87 182.19C41.87 182.36 42.13 182.42 42.17 182.245C42.9499 179.117 43.9525 176.05 45.17 173.065C49.61 171.84 53.965 170.84 56.3 166.43C58.675 161.9 58.375 155.995 57.925 151.06C57.865 150.795 57.5 150.78 57.37 150.96Z" fill="#EE8B4C"/>
<path d="M45.21 173C48.245 166.195 52.14 159.36 57.09 153.76C57.125 153.72 57.175 153.76 57.145 153.815C53.905 157.815 51.44 162.145 49.035 166.56C51.27 164.29 53.72 162.26 55.84 159.85C55.88 159.805 55.95 159.85 55.91 159.92C53.805 162.42 51.51 165.185 48.77 167.055C48.03 168.408 47.2867 169.767 46.54 171.13C46.725 171.025 46.915 170.935 47.105 170.84C47.135 170.84 47.165 170.875 47.135 170.89C46.925 170.995 46.715 171.11 46.5 171.2C46.145 171.845 45.795 172.485 45.425 173.13C45.345 173.245 45.145 173.12 45.21 173Z" fill="#263238"/>
<path d="M47.47 170.6C49.286 169.586 51.0181 168.429 52.65 167.14C52.695 167.105 52.76 167.165 52.715 167.205C51.13 168.564 49.3955 169.738 47.545 170.705C47.46 170.77 47.385 170.65 47.47 170.6Z" fill="#263238"/>
<path d="M41.08 180.5C41.08 180.64 41.33 180.635 41.325 180.5C41.36 176.72 41.325 172.925 41.385 169.13C42.355 167.18 44.43 166.1 45.885 164.535C46.9232 163.39 47.8274 162.13 48.58 160.78C50.3178 157.555 51.3811 154.009 51.705 150.36C52.105 146.32 50.57 132.99 48.865 133.45C47.985 133.69 45.125 140.295 44.365 142.48C43.136 146.081 42.2373 149.786 41.68 153.55C40.29 162.41 40.405 171.54 41.08 180.5Z" fill="#EE8B4C"/>
<path d="M41.05 164.19C41.255 159.41 42.335 154.585 43.34 149.95C44.425 144.95 45.695 140.255 48.265 135.8C48.315 135.715 48.435 135.8 48.395 135.875C46.6797 139.338 45.3516 142.98 44.435 146.735C44.61 146.465 44.82 146.21 44.995 145.955C45.065 145.855 45.23 145.955 45.165 146.055C44.9347 146.457 44.6651 146.836 44.36 147.185C44.3544 147.187 44.3485 147.189 44.3425 147.189C44.3365 147.189 44.3305 147.187 44.325 147.185C43.44 150.755 42.825 154.405 42.265 158.05L42.385 157.91C42.391 157.905 42.3985 157.902 42.4063 157.902C42.4141 157.901 42.4218 157.904 42.4282 157.908C42.4345 157.913 42.4391 157.92 42.4413 157.927C42.4434 157.935 42.4429 157.943 42.44 157.95C42.375 158.07 42.295 158.19 42.225 158.31C41.95 160.16 41.695 162.005 41.44 163.835C44.75 161 47.565 157.705 49.15 153.62C49.15 153.62 49.185 153.62 49.18 153.62C47.625 157.855 45.18 161.62 41.41 164.195L41.2 165.67C41.2 165.77 41.025 165.745 41.025 165.645C41.025 165.21 41.025 164.775 41.065 164.34C41 164.305 41 164.235 41.05 164.19Z" fill="#263238"/>
<path d="M42.6 157.265C45.1 153.51 47.465 149.865 49.31 145.715C49.31 145.67 49.41 145.715 49.39 145.75C47.84 149.875 45.665 154.05 42.73 157.36C42.67 157.43 42.55 157.34 42.6 157.265Z" fill="#263238"/>
<path d="M45.945 144.79C46.985 142.945 48.085 141.15 49.065 139.29C49.095 139.24 49.165 139.29 49.145 139.335C48.3411 141.297 47.3215 143.163 46.105 144.9C46.035 145 45.885 144.895 45.945 144.79Z" fill="#263238"/>
<path d="M45.54 145.59V145.62C45.54 145.62 45.5 145.59 45.54 145.59Z" fill="#263238"/>
<path d="M38.5 169.56C38.4596 172.062 38.1716 174.554 37.64 177C37.68 177.27 37.715 177.54 37.755 177.815C38.5291 175.106 38.9773 172.315 39.09 169.5C39.1123 169.461 39.1241 169.417 39.1241 169.373C39.1241 169.328 39.1123 169.284 39.09 169.245C39.2007 165.478 38.9243 161.71 38.265 158C37.095 151.055 34.54 144.395 29.7 139.19C29.66 139.156 29.6126 139.131 29.5616 139.118C29.5105 139.104 29.4571 139.103 29.4054 139.114C29.3538 139.124 29.3052 139.147 29.2635 139.179C29.2219 139.211 29.1881 139.253 29.165 139.3C27.21 144.27 27.89 150.195 29.555 155.15C30.4603 157.834 31.7541 160.371 33.395 162.68C35.055 165.035 37.175 167 38.5 169.56Z" fill="#EE8B4C"/>
<path d="M30.27 141.535C34.86 149 38.05 157.81 38.44 166.605C38.44 166.765 38.185 166.805 38.165 166.645C38.055 165.855 37.935 165.07 37.81 164.29C35.915 162.47 33.965 160.55 32.605 158.29C32.605 158.25 32.64 158.205 32.67 158.24C34.2469 160.17 35.9347 162.006 37.725 163.74C37.3916 161.793 37 159.878 36.55 157.995C36.425 157.855 36.305 157.71 36.185 157.565C36.065 157.42 36.24 157.34 36.32 157.43C36.4 157.52 36.395 157.515 36.43 157.555C35.7847 154.969 34.9849 152.425 34.035 149.935C32.865 148.545 31.56 147.34 30.71 145.66C30.71 145.62 30.745 145.59 30.77 145.625C31.455 146.585 32.115 147.55 32.89 148.44C33.2 148.795 33.54 149.13 33.86 149.475C32.8013 146.777 31.5462 144.16 30.105 141.645C30.0942 141.623 30.0918 141.598 30.0981 141.575C30.1044 141.551 30.119 141.531 30.1392 141.518C30.1594 141.504 30.1838 141.498 30.2079 141.502C30.2319 141.505 30.254 141.517 30.27 141.535V141.535Z" fill="#263238"/>
<path d="M31.2 150.72C32.7 152.72 34.37 154.62 35.75 156.685C35.79 156.745 35.705 156.805 35.655 156.76C33.885 155.095 32.385 152.825 31.1 150.76C31.06 150.715 31.155 150.665 31.2 150.72Z" fill="#263238"/>
<path d="M35.96 157.145L36.02 157.21C36.065 157.255 35.995 157.32 35.955 157.28L35.89 157.215C35.845 157.17 35.915 157.105 35.96 157.145Z" fill="#263238"/>
<path d="M23.085 155.85C23.45 159.68 25.465 164.26 27.925 167.21C29.0064 168.493 30.3431 169.537 31.85 170.275C33.55 171.115 35.35 172.085 37.09 172.775C37.9262 174.904 38.5476 177.112 38.945 179.365C39.005 179.175 39.06 178.975 39.115 178.78C37.985 169.08 31.71 160.78 23.68 155.47C23.6178 155.428 23.5447 155.405 23.4697 155.405C23.3948 155.404 23.3212 155.425 23.258 155.465C23.1948 155.505 23.1448 155.563 23.114 155.632C23.0833 155.7 23.0732 155.776 23.085 155.85Z" fill="#EE8B4C"/>
<path d="M25.855 158.715C25.8 158.665 25.855 158.565 25.94 158.61C30.3509 161.892 33.8682 166.227 36.17 171.22C36.225 171.35 36.045 171.465 35.97 171.335C35.595 170.68 35.215 170.045 34.83 169.42C32.995 169.075 31.26 167.785 29.9 166.56C29.865 166.53 29.9 166.475 29.955 166.51C30.6555 167.147 31.4332 167.692 32.27 168.135C33.02 168.515 33.825 168.755 34.6 169.06C33.92 167.98 33.215 166.945 32.475 165.945C30.4987 165.191 28.6451 164.148 26.975 162.85C26.92 162.81 26.975 162.725 27.025 162.76C28.6793 163.762 30.385 164.676 32.135 165.5C31.0089 164.023 29.795 162.616 28.5 161.285C27.875 160.955 27.245 160.625 26.64 160.285C26.59 160.26 26.64 160.175 26.68 160.19C27.1807 160.369 27.6589 160.606 28.105 160.895C27.4 160.145 26.655 159.42 25.855 158.715Z" fill="#263238"/>
<path d="M26.025 162.065C26.135 162.128 26.2388 162.202 26.335 162.285C26.365 162.31 26.335 162.35 26.295 162.335C26.1836 162.284 26.0766 162.224 25.975 162.155C25.92 162.12 25.97 162.03 26.025 162.065Z" fill="#263238"/>
<path d="M51.645 200.37H29.645L31.42 180.335L31.81 175.915H49.48L49.87 180.335L51.645 200.37Z" fill="#455A64"/>
<path d="M49.87 180.335H31.42L31.81 175.915H49.48L49.87 180.335Z" fill="#263238"/>
<path d="M50.535 172.83H30.76V177.205H50.535V172.83Z" fill="#455A64"/>
<path d="M83.74 162.08C83.905 161.23 84.005 160.47 84.09 159.66C84.175 158.85 84.215 158.045 84.21 157.22C84.214 156.372 84.1404 155.525 83.99 154.69C83.832 153.723 83.4445 152.807 82.86 152.02C82.4958 151.575 82.0291 151.225 81.5 151C81.2358 150.889 80.9586 150.812 80.675 150.77C80.4102 150.731 80.1421 150.719 79.875 150.735C78.8863 150.81 77.945 151.189 77.18 151.82C76.4922 152.371 75.9081 153.039 75.455 153.795C74.9835 154.539 74.6624 155.368 74.51 156.235C74.4094 156.753 74.4509 157.289 74.63 157.785C74.7534 158.106 74.9714 158.381 75.255 158.575C75.5246 158.754 75.837 158.857 76.16 158.875C76.4922 158.892 76.8222 158.812 77.11 158.645C77.3571 158.489 77.567 158.281 77.725 158.035C77.9753 157.641 78.1453 157.2 78.225 156.74C78.3676 155.923 78.3676 155.087 78.225 154.27C78.0994 153.452 77.8012 152.669 77.35 151.975C77.1089 151.607 76.7832 151.302 76.4 151.085C76.0034 150.869 75.5451 150.793 75.1 150.87C74.3026 151.049 73.5808 151.472 73.035 152.08C71.9991 153.221 71.1731 154.536 70.595 155.965C71.2738 154.612 72.1843 153.389 73.285 152.35C73.7984 151.851 74.4565 151.527 75.165 151.425C75.4824 151.419 75.7944 151.508 76.0614 151.68C76.3284 151.852 76.5384 152.099 76.665 152.39C76.9837 153.012 77.1693 153.693 77.21 154.39C77.269 155.085 77.2098 155.785 77.035 156.46C76.9615 156.75 76.8324 157.024 76.655 157.265C76.5996 157.336 76.5275 157.393 76.445 157.43C76.3982 157.448 76.3467 157.448 76.3 157.43C76.23 157.43 76.15 157.375 76.14 157.35C76.1192 157.314 76.104 157.275 76.095 157.235C76.0606 157.001 76.0777 156.762 76.145 156.535C76.5345 155.293 77.335 154.221 78.415 153.495C78.8518 153.178 79.3755 153.004 79.915 152.995C80.0296 153.001 80.1434 153.018 80.255 153.045C80.3457 153.069 80.433 153.104 80.515 153.15C80.6709 153.241 80.8015 153.37 80.895 153.525C81.1603 154.007 81.3157 154.541 81.35 155.09C81.4088 155.755 81.4088 156.425 81.35 157.09C81.2912 157.798 81.1961 158.502 81.065 159.2C80.935 159.895 80.77 160.63 80.565 161.265L83.74 162.08Z" fill="#EE8B4C"/>
<path opacity="0.1" d="M83.74 162.08C83.905 161.23 84.005 160.47 84.09 159.66C84.175 158.85 84.215 158.045 84.21 157.22C84.214 156.372 84.1404 155.525 83.99 154.69C83.832 153.723 83.4445 152.807 82.86 152.02C82.4958 151.575 82.0291 151.225 81.5 151C81.2358 150.889 80.9586 150.812 80.675 150.77C80.4102 150.731 80.1421 150.719 79.875 150.735C78.8863 150.81 77.945 151.189 77.18 151.82C76.4922 152.371 75.9081 153.039 75.455 153.795C74.9835 154.539 74.6624 155.368 74.51 156.235C74.4094 156.753 74.4509 157.289 74.63 157.785C74.7534 158.106 74.9714 158.381 75.255 158.575C75.5246 158.754 75.837 158.857 76.16 158.875C76.4922 158.892 76.8222 158.812 77.11 158.645C77.3571 158.489 77.567 158.281 77.725 158.035C77.9753 157.641 78.1453 157.2 78.225 156.74C78.3676 155.923 78.3676 155.087 78.225 154.27C78.0994 153.452 77.8012 152.669 77.35 151.975C77.1089 151.607 76.7832 151.302 76.4 151.085C76.0034 150.869 75.5451 150.793 75.1 150.87C74.3026 151.049 73.5808 151.472 73.035 152.08C71.9991 153.221 71.1731 154.536 70.595 155.965C71.2738 154.612 72.1843 153.389 73.285 152.35C73.7984 151.851 74.4565 151.527 75.165 151.425C75.4824 151.419 75.7944 151.508 76.0614 151.68C76.3284 151.852 76.5384 152.099 76.665 152.39C76.9837 153.012 77.1693 153.693 77.21 154.39C77.269 155.085 77.2098 155.785 77.035 156.46C76.9615 156.75 76.8324 157.024 76.655 157.265C76.5996 157.336 76.5275 157.393 76.445 157.43C76.3982 157.448 76.3467 157.448 76.3 157.43C76.23 157.43 76.15 157.375 76.14 157.35C76.1192 157.314 76.104 157.275 76.095 157.235C76.0606 157.001 76.0777 156.762 76.145 156.535C76.5345 155.293 77.335 154.221 78.415 153.495C78.8518 153.178 79.3755 153.004 79.915 152.995C80.0296 153.001 80.1434 153.018 80.255 153.045C80.3457 153.069 80.433 153.104 80.515 153.15C80.6709 153.241 80.8015 153.37 80.895 153.525C81.1603 154.007 81.3157 154.541 81.35 155.09C81.4088 155.755 81.4088 156.425 81.35 157.09C81.2912 157.798 81.1961 158.502 81.065 159.2C80.935 159.895 80.77 160.63 80.565 161.265L83.74 162.08Z" fill="black"/>
<path d="M86.275 199.23C88.48 202.345 88.03 211.86 89.365 213.195C90.7 214.53 104.365 214.385 105.305 213.6C106.245 212.815 105.805 209.455 106.805 208.905C107.23 208.685 86.275 199.23 86.275 199.23Z" fill="#EE8B4C"/>
<path opacity="0.1" d="M86.275 199.23C88.48 202.345 88.03 211.86 89.365 213.195C90.7 214.53 104.365 214.385 105.305 213.6C106.245 212.815 105.805 209.455 106.805 208.905C107.23 208.685 86.275 199.23 86.275 199.23Z" fill="black"/>
<path d="M144.695 199.385C141.94 203.385 143.43 211.885 142.095 213.195C140.76 214.505 127.095 214.385 126.155 213.6C125.215 212.815 125.655 209.275 125.11 208.6C124.825 208.245 144.695 199.385 144.695 199.385Z" fill="#EE8B4C"/>
<path opacity="0.1" d="M144.695 199.385C141.94 203.385 143.43 211.885 142.095 213.195C140.76 214.505 127.095 214.385 126.155 213.6C125.215 212.815 125.655 209.275 125.11 208.6C124.825 208.245 144.695 199.385 144.695 199.385Z" fill="black"/>
<path opacity="0.3" d="M106.825 208.905C106.665 209.024 106.531 209.174 106.429 209.346C106.328 209.517 106.262 209.707 106.235 209.905C99.9216 209.173 93.7494 207.521 87.915 205C87.595 202.68 87.14 200.47 86.275 199.245C86.275 199.235 107.23 208.69 106.825 208.905Z" fill="black"/>
<path opacity="0.3" d="M144.695 199.385C143.67 200.885 143.23 202.98 143.015 205.115C137.42 207.594 131.489 209.233 125.415 209.98C125.423 209.503 125.321 209.031 125.115 208.6C124.82 208.245 144.695 199.385 144.695 199.385Z" fill="black"/>
<path d="M114.57 141.72C87.07 141.72 76.51 163.265 76.51 175.875C76.51 188.315 84.51 209.455 114.57 209.455C144.63 209.455 154.595 191.545 154.595 175.59C154.595 159.635 142.375 141.72 114.57 141.72Z" fill="#EE8B4C"/>
<path opacity="0.1" d="M114.57 141.72C87.07 141.72 76.51 163.265 76.51 175.875C76.51 188.315 84.51 209.455 114.57 209.455C144.63 209.455 154.595 191.545 154.595 175.59C154.595 159.635 142.375 141.72 114.57 141.72Z" fill="black"/>
<path d="M122.335 143.28C122.335 143.28 134.905 133.64 148.52 134.78C153.205 135.175 145.425 145.335 145.28 153.28L122.335 143.28Z" fill="#EE8B4C"/>
<path opacity="0.1" d="M122.335 143.28C122.335 143.28 134.905 133.64 148.52 134.78C153.205 135.175 145.425 145.335 145.28 153.28L122.335 143.28Z" fill="black"/>
<path opacity="0.3" d="M140.03 149.39C139.95 149.89 144.29 151.75 144.74 151.465C145.19 151.18 145.64 144.93 149.18 138.27C149.7 137.29 140.87 144 140.03 149.39Z" fill="black"/>
<path opacity="0.3" d="M142.76 174.15C143.179 174.086 143.572 173.904 143.891 173.625C144.211 173.346 144.445 172.982 144.565 172.575C144.525 173.075 144.372 173.56 144.119 173.993C143.865 174.426 143.517 174.796 143.1 175.075C143.04 175.115 143.07 175.23 143.15 175.205C145.555 174.3 145.295 170.905 144.45 168.74C144.405 168.62 144.36 168.5 144.305 168.385C143.765 167.13 142.805 166.22 141.645 166.385C137.76 166.945 139.16 174.67 142.76 174.15Z" fill="black"/>
<path d="M152 163.15C152.6 164.955 158.06 163.49 159.435 164.65C161.6 166.45 161 188.745 159.02 190.54C157.91 191.54 151.72 190.485 149.98 191.71C148.24 192.935 152 163.15 152 163.15Z" fill="#EE8B4C"/>
<path opacity="0.1" d="M152 163.15C152.6 164.955 158.06 163.49 159.435 164.65C161.6 166.45 161 188.745 159.02 190.54C157.91 191.54 151.72 190.485 149.98 191.71C148.24 192.935 152 163.15 152 163.15Z" fill="black"/>
<path opacity="0.3" d="M159.745 177.035C159.745 182.465 159.29 186.87 158.745 186.87C158.2 186.87 157.745 182.465 157.745 177.035C157.745 171.605 158.195 167.2 158.745 167.2C159.295 167.2 159.745 171.605 159.745 177.035Z" fill="black"/>
<path opacity="0.3" d="M103.9 148.865C103.99 148.835 113.27 145.82 121.9 148.18L122.76 145.035C113.15 142.405 103.26 145.635 102.865 145.77L103.895 148.865L103.395 147.32L103.9 148.865Z" fill="black"/>
<path d="M91 196.205C78.605 181.96 86.19 165.42 86.535 164.705C86.7469 164.223 86.7644 163.678 86.5838 163.184C86.4032 162.689 86.0385 162.284 85.5659 162.052C85.0933 161.82 84.5494 161.78 84.0479 161.94C83.5465 162.1 83.1262 162.447 82.875 162.91C81.2005 166.663 80.21 170.684 79.95 174.785C79.355 183.845 82.35 192.165 89.45 197.83C91.595 199.54 92.61 198.04 91 196.205Z" fill="white"/>
<path d="M85.62 158.385C85.619 158.824 85.7483 159.254 85.9917 159.62C86.235 159.985 86.5814 160.271 86.9869 160.44C87.3925 160.608 87.839 160.653 88.27 160.568C88.701 160.483 89.097 160.272 89.408 159.962C89.7189 159.651 89.9309 159.256 90.0169 158.825C90.103 158.394 90.0593 157.948 89.8915 157.542C89.7236 157.136 89.439 156.789 89.0739 156.544C88.7087 156.3 88.2793 156.17 87.84 156.17C87.252 156.17 86.6881 156.403 86.272 156.818C85.8558 157.234 85.6213 157.797 85.62 158.385Z" fill="white"/>
<path d="M195.745 210.79H180.07V214.255H195.745V210.79Z" fill="#EE8B4C"/>
<g opacity="0.1">
<path d="M180.715 211.105C181.046 212 181.046 212.985 180.715 213.88C180.384 212.985 180.384 212 180.715 211.105Z" fill="black"/>
<path d="M181.88 211.105C182.211 212 182.211 212.985 181.88 213.88C181.549 212.985 181.549 212 181.88 211.105Z" fill="black"/>
<path d="M182.45 211.105C182.781 212 182.781 212.985 182.45 213.88C182.119 212.985 182.119 212 182.45 211.105Z" fill="black"/>
<path d="M185.585 211.105C185.912 212.001 185.912 212.984 185.585 213.88C185.254 212.985 185.254 212 185.585 211.105Z" fill="black"/>
<path d="M186.43 211.105C186.602 211.548 186.687 212.02 186.68 212.495C186.689 212.969 186.604 213.439 186.43 213.88C186.254 213.44 186.169 212.969 186.18 212.495C186.173 212.02 186.258 211.548 186.43 211.105Z" fill="black"/>
<path d="M189.93 211.105C190.261 212 190.261 212.985 189.93 213.88C189.599 212.985 189.599 212 189.93 211.105Z" fill="black"/>
<path d="M190.74 211.105C191.071 212 191.071 212.985 190.74 213.88C190.409 212.985 190.409 212 190.74 211.105Z" fill="black"/>
<path d="M192.225 211.105C192.556 212 192.556 212.985 192.225 213.88C191.898 212.984 191.898 212.001 192.225 211.105V211.105Z" fill="black"/>
<path d="M189.255 211.105C189.428 211.549 189.512 212.023 189.5 212.5C189.511 212.974 189.426 213.445 189.25 213.885C189.076 213.444 188.991 212.974 189 212.5C188.994 212.023 189.08 211.549 189.255 211.105Z" fill="black"/>
<path d="M183.5 211.105C183.831 212 183.831 212.985 183.5 213.88C183.169 212.985 183.169 212 183.5 211.105Z" fill="black"/>
<path d="M187.545 211.105C187.876 212 187.876 212.985 187.545 213.88C187.369 213.44 187.284 212.969 187.295 212.495C187.285 212.02 187.37 211.547 187.545 211.105V211.105Z" fill="black"/>
<path d="M188.13 211.105C188.461 212 188.461 212.985 188.13 213.88C187.799 212.985 187.799 212 188.13 211.105Z" fill="black"/>
<path d="M194.165 211.105C194.337 211.548 194.422 212.02 194.415 212.495C194.424 212.969 194.339 213.439 194.165 213.88C193.989 213.44 193.904 212.969 193.915 212.495C193.905 212.02 193.99 211.547 194.165 211.105Z" fill="black"/>
<path d="M195.04 211.105C195.212 211.548 195.297 212.02 195.29 212.495C195.301 212.969 195.216 213.44 195.04 213.88C194.866 213.439 194.781 212.969 194.79 212.495C194.783 212.02 194.868 211.548 195.04 211.105Z" fill="black"/>
<path d="M192.915 211.105C193.246 212 193.246 212.985 192.915 213.88C192.584 212.985 192.584 212 192.915 211.105Z" fill="black"/>
<path d="M184.905 211.105C185.08 211.547 185.165 212.02 185.155 212.495C185.166 212.969 185.081 213.44 184.905 213.88C184.574 212.985 184.574 212 184.905 211.105V211.105Z" fill="black"/>
</g>
<path opacity="0.1" d="M195.745 210.79V211.525L180.065 212.02V210.79H195.745Z" fill="black"/>
<path d="M194.435 207.325H178.76V210.79H194.435V207.325Z" fill="#EE8B4C"/>
<g opacity="0.1">
<path d="M193.73 210.415C193.397 209.522 193.397 208.538 193.73 207.645C194.063 208.538 194.063 209.522 193.73 210.415V210.415Z" fill="black"/>
<path d="M192.565 210.415C192.39 209.975 192.306 209.504 192.315 209.03C192.303 208.556 192.388 208.085 192.565 207.645C192.74 208.085 192.825 208.556 192.815 209.03C192.822 209.504 192.737 209.974 192.565 210.415V210.415Z" fill="black"/>
<path d="M192 210.415C191.667 209.522 191.667 208.538 192 207.645C192.334 208.538 192.334 209.522 192 210.415V210.415Z" fill="black"/>
<path d="M188.865 210.415C188.532 209.522 188.532 208.538 188.865 207.645C189.198 208.538 189.198 209.522 188.865 210.415V210.415Z" fill="black"/>
<path d="M188 210.415C187.828 209.974 187.743 209.504 187.75 209.03C187.74 208.556 187.825 208.085 188 207.645C188.177 208.085 188.262 208.556 188.25 209.03C188.26 209.504 188.175 209.975 188 210.415Z" fill="black"/>
<path d="M184.5 210.415C184.167 209.522 184.167 208.538 184.5 207.645C184.834 208.538 184.834 209.522 184.5 210.415V210.415Z" fill="black"/>
<path d="M183.705 210.415C183.53 209.975 183.445 209.504 183.455 209.03C183.443 208.556 183.528 208.085 183.705 207.645C184.038 208.538 184.038 209.522 183.705 210.415Z" fill="black"/>
<path d="M182.22 210.415C181.887 209.522 181.887 208.538 182.22 207.645C182.553 208.538 182.553 209.522 182.22 210.415V210.415Z" fill="black"/>
<path d="M185.19 210.415C185.018 209.974 184.933 209.504 184.94 209.03C184.928 208.556 185.013 208.085 185.19 207.645C185.365 208.085 185.45 208.556 185.44 209.03C185.447 209.504 185.362 209.974 185.19 210.415Z" fill="black"/>
<path d="M190.96 210.415C190.785 209.975 190.7 209.504 190.71 209.03C190.698 208.556 190.783 208.085 190.96 207.645C191.293 208.538 191.293 209.522 190.96 210.415Z" fill="black"/>
<path d="M186.9 210.415C186.567 209.522 186.567 208.538 186.9 207.645C187.233 208.538 187.233 209.522 186.9 210.415V210.415Z" fill="black"/>
<path d="M186.32 210.415C185.987 209.522 185.987 208.538 186.32 207.645C186.647 208.539 186.647 209.521 186.32 210.415Z" fill="black"/>
<path d="M180.28 210.415C179.947 209.522 179.947 208.538 180.28 207.645C180.457 208.085 180.542 208.556 180.53 209.03C180.54 209.504 180.455 209.975 180.28 210.415Z" fill="black"/>
<path d="M179.405 210.415C179.233 209.974 179.148 209.504 179.155 209.03C179.145 208.556 179.23 208.085 179.405 207.645C179.582 208.085 179.667 208.556 179.655 209.03C179.665 209.504 179.58 209.975 179.405 210.415Z" fill="black"/>
<path d="M181.53 210.415C181.197 209.522 181.197 208.538 181.53 207.645C181.863 208.538 181.863 209.522 181.53 210.415V210.415Z" fill="black"/>
<path d="M189.54 210.415C189.365 209.975 189.28 209.504 189.29 209.03C189.278 208.556 189.363 208.085 189.54 207.645C189.715 208.085 189.8 208.556 189.79 209.03C189.797 209.504 189.712 209.974 189.54 210.415V210.415Z" fill="black"/>
</g>
<path opacity="0.1" d="M194.435 207.325V208.06L178.76 208.555V207.325H194.435Z" fill="black"/>
<path d="M195.64 203.89H179.965V207.355H195.64V203.89Z" fill="#EE8B4C"/>
<g opacity="0.1">
<path d="M180.615 204.205C180.946 205.1 180.946 206.085 180.615 206.98C180.284 206.085 180.284 205.1 180.615 204.205Z" fill="black"/>
<path d="M181.78 204.205C181.955 204.647 182.039 205.12 182.03 205.595C182.041 206.069 181.956 206.54 181.78 206.98C181.449 206.085 181.449 205.1 181.78 204.205V204.205Z" fill="black"/>
<path d="M182.35 204.205C182.681 205.1 182.681 206.085 182.35 206.98C182.019 206.085 182.019 205.1 182.35 204.205Z" fill="black"/>
<path d="M185.5 204.205C185.831 205.1 185.831 206.085 185.5 206.98C185.169 206.085 185.169 205.1 185.5 204.205Z" fill="black"/>
<path d="M186.33 204.205C186.502 204.648 186.587 205.12 186.58 205.595C186.589 206.069 186.504 206.539 186.33 206.98C186.154 206.54 186.069 206.069 186.08 205.595C186.07 205.12 186.155 204.647 186.33 204.205Z" fill="black"/>
<path d="M189.83 204.205C190.161 205.1 190.161 206.085 189.83 206.98C189.499 206.085 189.499 205.1 189.83 204.205Z" fill="black"/>
<path d="M190.64 204.205C190.971 205.1 190.971 206.085 190.64 206.98C190.309 206.085 190.309 205.1 190.64 204.205Z" fill="black"/>
<path d="M192.125 204.205C192.456 205.1 192.456 206.085 192.125 206.98C191.794 206.085 191.794 205.1 192.125 204.205Z" fill="black"/>
<path d="M189.155 204.205C189.327 204.648 189.412 205.12 189.405 205.595C189.416 206.069 189.331 206.54 189.155 206.98C188.981 206.539 188.896 206.069 188.905 205.595C188.898 205.12 188.983 204.648 189.155 204.205Z" fill="black"/>
<path d="M183.385 204.205C183.716 205.1 183.716 206.085 183.385 206.98C183.054 206.085 183.054 205.1 183.385 204.205Z" fill="black"/>
<path d="M187.445 204.205C187.776 205.1 187.776 206.085 187.445 206.98C187.114 206.085 187.114 205.1 187.445 204.205Z" fill="black"/>
<path d="M188.03 204.205C188.357 205.101 188.357 206.084 188.03 206.98C187.699 206.085 187.699 205.1 188.03 204.205Z" fill="black"/>
<path d="M194.065 204.205C194.396 205.1 194.396 206.085 194.065 206.98C193.889 206.54 193.804 206.069 193.815 205.595C193.805 205.12 193.89 204.647 194.065 204.205V204.205Z" fill="black"/>
<path d="M194.94 204.205C195.112 204.648 195.197 205.12 195.19 205.595C195.199 206.069 195.114 206.539 194.94 206.98C194.764 206.54 194.679 206.069 194.69 205.595C194.683 205.12 194.768 204.648 194.94 204.205V204.205Z" fill="black"/>
<path d="M192.815 204.205C193.146 205.1 193.146 206.085 192.815 206.98C192.484 206.085 192.484 205.1 192.815 204.205Z" fill="black"/>
<path d="M184.805 204.205C184.98 204.647 185.065 205.12 185.055 205.595C185.066 206.069 184.981 206.54 184.805 206.98C184.631 206.539 184.546 206.069 184.555 205.595C184.548 205.12 184.633 204.648 184.805 204.205Z" fill="black"/>
</g>
<path opacity="0.1" d="M195.645 203.89V204.625L179.965 205.12V203.89H195.645Z" fill="black"/>
<path d="M81.1 208.705H65.425V212.17H81.1V208.705Z" fill="#EE8B4C"/>
<g opacity="0.1">
<path d="M66.07 209C66.4011 209.895 66.4011 210.88 66.07 211.775C65.7389 210.88 65.7389 209.895 66.07 209V209Z" fill="black"/>
<path d="M67.24 209C67.4118 209.441 67.4967 209.912 67.49 210.385C67.4995 210.86 67.4146 211.333 67.24 211.775C67.0631 211.333 66.978 210.861 66.99 210.385C66.9809 209.911 67.0659 209.441 67.24 209V209Z" fill="black"/>
<path d="M67.81 209C67.9818 209.441 68.0667 209.912 68.06 210.385C68.072 210.861 67.9869 211.333 67.81 211.775C67.6354 211.333 67.5505 210.86 67.56 210.385C67.5533 209.912 67.6382 209.441 67.81 209Z" fill="black"/>
<path d="M70.94 209C71.2711 209.895 71.2711 210.88 70.94 211.775C70.6089 210.88 70.6089 209.895 70.94 209V209Z" fill="black"/>
<path d="M71.79 209C72.1211 209.895 72.1211 210.88 71.79 211.775C71.4588 210.88 71.4588 209.895 71.79 209V209Z" fill="black"/>
<path d="M75.29 209C75.4641 209.441 75.5491 209.911 75.54 210.385C75.552 210.861 75.4669 211.333 75.29 211.775C74.9588 210.88 74.9588 209.895 75.29 209V209Z" fill="black"/>
<path d="M76.1 209C76.2718 209.441 76.3567 209.912 76.35 210.385C76.362 210.861 76.2769 211.333 76.1 211.775C75.9255 211.333 75.8405 210.86 75.85 210.385C75.8434 209.912 75.9282 209.441 76.1 209V209Z" fill="black"/>
<path d="M77.585 209C77.7592 209.441 77.8442 209.911 77.835 210.385C77.847 210.861 77.7619 211.333 77.585 211.775C77.2539 210.88 77.2539 209.895 77.585 209V209Z" fill="black"/>
<path d="M74.615 209C74.9461 209.895 74.9461 210.88 74.615 211.775C74.4381 211.333 74.353 210.861 74.365 210.385C74.3559 209.911 74.4409 209.441 74.615 209Z" fill="black"/>
<path d="M68.845 209C69.0168 209.441 69.1017 209.912 69.095 210.385C69.1045 210.86 69.0195 211.333 68.845 211.775C68.6681 211.333 68.583 210.861 68.595 210.385C68.5883 209.912 68.6732 209.441 68.845 209Z" fill="black"/>
<path d="M72.905 209C73.2362 209.895 73.2362 210.88 72.905 211.775C72.5739 210.88 72.5739 209.895 72.905 209V209Z" fill="black"/>
<path d="M73.5 209C73.8311 209.895 73.8311 210.88 73.5 211.775C73.1689 210.88 73.1689 209.895 73.5 209V209Z" fill="black"/>
<path d="M79.525 209C79.8562 209.895 79.8562 210.88 79.525 211.775C79.1939 210.88 79.1939 209.895 79.525 209V209Z" fill="black"/>
<path d="M80.4 209C80.7312 209.895 80.7312 210.88 80.4 211.775C80.0689 210.88 80.0689 209.895 80.4 209V209Z" fill="black"/>
<path d="M78.275 209C78.4492 209.441 78.5342 209.911 78.525 210.385C78.537 210.861 78.4519 211.333 78.275 211.775C77.9439 210.88 77.9439 209.895 78.275 209V209Z" fill="black"/>
<path d="M70.265 209C70.4368 209.441 70.5217 209.912 70.515 210.385C70.5246 210.86 70.4396 211.333 70.265 211.775C70.0881 211.333 70.003 210.861 70.015 210.385C70.0059 209.911 70.0909 209.441 70.265 209V209Z" fill="black"/>
</g>
<path opacity="0.1" d="M81.105 208.705V209.44L65.425 209.935V208.705H81.105Z" fill="black"/>
<path d="M80.03 205.24H64.355V208.705H80.03V205.24Z" fill="#EE8B4C"/>
<g opacity="0.1">
<path d="M65 205.555C65.1722 205.998 65.2571 206.47 65.25 206.945C65.2613 207.419 65.1763 207.89 65 208.33C64.8238 207.89 64.7387 207.419 64.75 206.945C64.743 206.47 64.8278 205.998 65 205.555V205.555Z" fill="black"/>
<path d="M66.165 205.555C66.4962 206.45 66.4962 207.435 66.165 208.33C65.8382 207.434 65.8382 206.451 66.165 205.555V205.555Z" fill="black"/>
<path d="M66.74 205.555C67.0711 206.45 67.0711 207.435 66.74 208.33C66.4089 207.435 66.4089 206.45 66.74 205.555V205.555Z" fill="black"/>
<path d="M69.87 205.555C70.2012 206.45 70.2012 207.435 69.87 208.33C69.6938 207.89 69.6087 207.419 69.62 206.945C69.6105 206.47 69.6955 205.997 69.87 205.555Z" fill="black"/>
<path d="M70.715 205.555C71.0462 206.45 71.0462 207.435 70.715 208.33C70.3839 207.435 70.3839 206.45 70.715 205.555V205.555Z" fill="black"/>
<path d="M74.22 205.555C74.5512 206.45 74.5512 207.435 74.22 208.33C73.8889 207.435 73.8889 206.45 74.22 205.555V205.555Z" fill="black"/>
<path d="M75.03 205.555C75.3612 206.45 75.3612 207.435 75.03 208.33C74.6989 207.435 74.6989 206.45 75.03 205.555V205.555Z" fill="black"/>
<path d="M76.5 205.555C76.8311 206.45 76.8311 207.435 76.5 208.33C76.1689 207.435 76.1689 206.45 76.5 205.555V205.555Z" fill="black"/>
<path d="M73.54 205.555C73.8712 206.45 73.8712 207.435 73.54 208.33C73.2089 207.435 73.2089 206.45 73.54 205.555V205.555Z" fill="black"/>
<path d="M67.775 205.555C68.1062 206.45 68.1062 207.435 67.775 208.33C67.4439 207.435 67.4439 206.45 67.775 205.555V205.555Z" fill="black"/>
<path d="M71.83 205.555C72.0046 205.997 72.0895 206.47 72.08 206.945C72.0913 207.419 72.0063 207.89 71.83 208.33C71.6559 207.889 71.5709 207.419 71.58 206.945C71.5729 206.47 71.6578 205.998 71.83 205.555V205.555Z" fill="black"/>
<path d="M72.415 205.555C72.7461 206.45 72.7461 207.435 72.415 208.33C72.2387 207.89 72.1537 207.419 72.165 206.945C72.1555 206.47 72.2404 205.997 72.415 205.555V205.555Z" fill="black"/>
<path d="M78.45 205.555C78.6246 205.997 78.7095 206.47 78.7 206.945C78.7113 207.419 78.6263 207.89 78.45 208.33C78.1189 207.435 78.1189 206.45 78.45 205.555V205.555Z" fill="black"/>
<path d="M79.325 205.555C79.6562 206.45 79.6562 207.435 79.325 208.33C78.9939 207.435 78.9939 206.45 79.325 205.555V205.555Z" fill="black"/>
<path d="M77.205 205.555C77.5362 206.45 77.5362 207.435 77.205 208.33C76.8739 207.435 76.8739 206.45 77.205 205.555V205.555Z" fill="black"/>
<path d="M69.19 205.555C69.5211 206.45 69.5211 207.435 69.19 208.33C68.8589 207.435 68.8589 206.45 69.19 205.555V205.555Z" fill="black"/>
</g>
<path opacity="0.1" d="M80.03 205.24V205.975L64.355 206.47V205.24H80.03Z" fill="black"/>
<path d="M82.45 198.34H66.775V201.805H82.45V198.34Z" fill="#EE8B4C"/>
<g opacity="0.1">
<path d="M67.42 198.655C67.7511 199.55 67.7511 200.535 67.42 201.43C67.0888 200.535 67.0888 199.55 67.42 198.655Z" fill="black"/>
<path d="M68.59 198.655C68.7622 199.098 68.847 199.57 68.84 200.045C68.8491 200.519 68.7641 200.989 68.59 201.43C68.4137 200.99 68.3287 200.519 68.34 200.045C68.3305 199.57 68.4154 199.097 68.59 198.655V198.655Z" fill="black"/>
<path d="M69.16 198.655C69.3322 199.098 69.4171 199.57 69.41 200.045C69.4191 200.519 69.3341 200.989 69.16 201.43C68.9837 200.99 68.8987 200.519 68.91 200.045C68.9029 199.57 68.9878 199.098 69.16 198.655Z" fill="black"/>
<path d="M72.29 198.655C72.4645 199.097 72.5495 199.57 72.54 200.045C72.5513 200.519 72.4662 200.99 72.29 201.43C71.9588 200.535 71.9588 199.55 72.29 198.655V198.655Z" fill="black"/>
<path d="M73.14 198.655C73.4711 199.55 73.4711 200.535 73.14 201.43C72.8088 200.535 72.8088 199.55 73.14 198.655Z" fill="black"/>
<path d="M76.64 198.655C76.8145 199.097 76.8995 199.57 76.89 200.045C76.9013 200.519 76.8162 200.99 76.64 201.43C76.4658 200.989 76.3808 200.519 76.39 200.045C76.3829 199.57 76.4678 199.098 76.64 198.655Z" fill="black"/>
<path d="M77.45 198.655C77.6221 199.098 77.707 199.57 77.7 200.045C77.7091 200.519 77.6241 200.989 77.45 201.43C77.2737 200.99 77.1887 200.519 77.2 200.045C77.1929 199.57 77.2778 199.098 77.45 198.655Z" fill="black"/>
<path d="M78.935 198.655C79.1095 199.097 79.1945 199.57 79.185 200.045C79.1963 200.519 79.1113 200.99 78.935 201.43C78.6039 200.535 78.6039 199.55 78.935 198.655V198.655Z" fill="black"/>
<path d="M75.965 198.655C76.2961 199.55 76.2961 200.535 75.965 201.43C75.6338 200.535 75.6338 199.55 75.965 198.655Z" fill="black"/>
<path d="M70.195 198.655C70.3671 199.098 70.452 199.57 70.445 200.045C70.4541 200.519 70.3691 200.989 70.195 201.43C70.0187 200.99 69.9337 200.519 69.945 200.045C69.9379 199.57 70.0228 199.098 70.195 198.655Z" fill="black"/>
<path d="M74.25 198.655C74.5811 199.55 74.5811 200.535 74.25 201.43C73.9232 200.534 73.9232 199.551 74.25 198.655V198.655Z" fill="black"/>
<path d="M74.835 198.655C75.1661 199.55 75.1661 200.535 74.835 201.43C74.5038 200.535 74.5038 199.55 74.835 198.655Z" fill="black"/>
<path d="M80.875 198.655C81.2061 199.55 81.2061 200.535 80.875 201.43C80.5439 200.535 80.5439 199.55 80.875 198.655Z" fill="black"/>
<path d="M81.75 198.655C82.0811 199.55 82.0811 200.535 81.75 201.43C81.4189 200.535 81.4189 199.55 81.75 198.655Z" fill="black"/>
<path d="M79.625 198.655C79.7995 199.097 79.8845 199.57 79.875 200.045C79.8863 200.519 79.8012 200.99 79.625 201.43C79.4508 200.989 79.3659 200.519 79.375 200.045C79.3679 199.57 79.4528 199.098 79.625 198.655Z" fill="black"/>
<path d="M71.615 198.655C71.7872 199.098 71.8721 199.57 71.865 200.045C71.8741 200.519 71.7892 200.989 71.615 201.43C71.4388 200.99 71.3537 200.519 71.365 200.045C71.3555 199.57 71.4405 199.097 71.615 198.655V198.655Z" fill="black"/>
</g>
<path opacity="0.1" d="M82.45 198.34V199.075L66.775 199.57V198.34H82.45Z" fill="black"/>
<path d="M82.055 194.875H66.38V198.34H82.055V194.875Z" fill="#EE8B4C"/>
<g opacity="0.1">
<path d="M81.355 197.965C81.0216 197.072 81.0216 196.088 81.355 195.195C81.6819 196.089 81.6819 197.071 81.355 197.965V197.965Z" fill="black"/>
<path d="M80.185 197.965C80.0128 197.524 79.9279 197.053 79.935 196.58C79.9251 196.106 80.0101 195.635 80.185 195.195C80.3623 195.635 80.4474 196.106 80.435 196.58C80.442 197.053 80.3571 197.524 80.185 197.965V197.965Z" fill="black"/>
<path d="M79.615 197.965C79.4405 197.525 79.3555 197.054 79.365 196.58C79.3526 196.106 79.4377 195.635 79.615 195.195C79.7899 195.635 79.8749 196.106 79.865 196.58C79.872 197.053 79.7871 197.524 79.615 197.965Z" fill="black"/>
<path d="M76.5 197.965C76.1665 197.072 76.1665 196.088 76.5 195.195C76.8335 196.088 76.8335 197.072 76.5 197.965V197.965Z" fill="black"/>
<path d="M75.635 197.965C75.3015 197.072 75.3015 196.088 75.635 195.195C75.9684 196.088 75.9684 197.072 75.635 197.965V197.965Z" fill="black"/>
<path d="M72.135 197.965C71.9604 197.525 71.8755 197.054 71.885 196.58C71.8725 196.106 71.9576 195.635 72.135 195.195C72.4684 196.088 72.4684 197.072 72.135 197.965Z" fill="black"/>
<path d="M71.325 197.965C71.1504 197.525 71.0655 197.054 71.075 196.58C71.0625 196.106 71.1476 195.635 71.325 195.195C71.4999 195.635 71.5849 196.106 71.575 196.58C71.582 197.053 71.4971 197.524 71.325 197.965V197.965Z" fill="black"/>
<path d="M69.84 197.965C69.5065 197.072 69.5065 196.088 69.84 195.195C70.1735 196.088 70.1735 197.072 69.84 197.965V197.965Z" fill="black"/>
<path d="M72.81 197.965C72.6378 197.524 72.5529 197.053 72.56 196.58C72.5501 196.106 72.6351 195.635 72.81 195.195C72.9873 195.635 73.0724 196.106 73.06 196.58C73.0695 197.054 72.9845 197.525 72.81 197.965Z" fill="black"/>
<path d="M78.58 197.965C78.4078 197.524 78.3229 197.053 78.33 196.58C78.3176 196.106 78.4026 195.635 78.58 195.195C78.7549 195.635 78.8399 196.106 78.83 196.58C78.837 197.053 78.7521 197.524 78.58 197.965V197.965Z" fill="black"/>
<path d="M74.5 197.965C74.1665 197.072 74.1665 196.088 74.5 195.195C74.8334 196.088 74.8334 197.072 74.5 197.965V197.965Z" fill="black"/>
<path d="M73.94 197.965C73.6065 197.072 73.6065 196.088 73.94 195.195C74.2734 196.088 74.2734 197.072 73.94 197.965V197.965Z" fill="black"/>
<path d="M67.9 197.965C67.5665 197.072 67.5665 196.088 67.9 195.195C68.2335 196.088 68.2335 197.072 67.9 197.965V197.965Z" fill="black"/>
<path d="M67.025 197.965C66.6915 197.072 66.6915 196.088 67.025 195.195C67.3585 196.088 67.3585 197.072 67.025 197.965V197.965Z" fill="black"/>
<path d="M69.15 197.965C68.8165 197.072 68.8165 196.088 69.15 195.195C69.4835 196.088 69.4835 197.072 69.15 197.965V197.965Z" fill="black"/>
<path d="M77.16 197.965C76.9879 197.524 76.903 197.053 76.91 196.58C76.9001 196.106 76.9851 195.635 77.16 195.195C77.3374 195.635 77.4225 196.106 77.41 196.58C77.4171 197.053 77.3322 197.524 77.16 197.965Z" fill="black"/>
</g>
<path opacity="0.1" d="M82.055 194.875V195.61L66.38 196.105V194.875H82.055Z" fill="black"/>
<path d="M81.1 191.41H65.425V194.875H81.1V191.41Z" fill="#EE8B4C"/>
<g opacity="0.1">
<path d="M66.07 191.73C66.4034 192.623 66.4034 193.607 66.07 194.5C65.7431 193.606 65.7431 192.624 66.07 191.73Z" fill="black"/>
<path d="M67.24 191.73C67.4122 192.171 67.4971 192.641 67.49 193.115C67.4995 193.589 67.4145 194.06 67.24 194.5C67.0638 194.06 66.9787 193.589 66.99 193.115C66.983 192.641 67.0679 192.171 67.24 191.73V191.73Z" fill="black"/>
<path d="M67.81 191.73C67.9845 192.17 68.0695 192.641 68.06 193.115C68.0713 193.589 67.9862 194.06 67.81 194.5C67.6354 194.06 67.5505 193.589 67.56 193.115C67.5529 192.641 67.6378 192.171 67.81 191.73Z" fill="black"/>
<path d="M70.94 191.73C71.2734 192.623 71.2734 193.607 70.94 194.5C70.6065 193.607 70.6065 192.623 70.94 191.73V191.73Z" fill="black"/>
<path d="M71.79 191.73C72.1234 192.623 72.1234 193.607 71.79 194.5C71.4565 193.607 71.4565 192.623 71.79 191.73V191.73Z" fill="black"/>
<path d="M75.29 191.73C75.6234 192.623 75.6234 193.607 75.29 194.5C74.9565 193.607 74.9565 192.623 75.29 191.73V191.73Z" fill="black"/>
<path d="M76.1 191.73C76.2745 192.17 76.3595 192.641 76.35 193.115C76.3613 193.589 76.2762 194.06 76.1 194.5C75.9254 194.06 75.8404 193.589 75.85 193.115C75.8429 192.641 75.9278 192.171 76.1 191.73V191.73Z" fill="black"/>
<path d="M77.585 191.73C77.9184 192.623 77.9184 193.607 77.585 194.5C77.2515 193.607 77.2515 192.623 77.585 191.73V191.73Z" fill="black"/>
<path d="M74.615 191.73C74.7872 192.171 74.8721 192.641 74.865 193.115C74.8745 193.589 74.7895 194.06 74.615 194.5C74.4388 194.06 74.3537 193.589 74.365 193.115C74.3555 192.641 74.4405 192.17 74.615 191.73V191.73Z" fill="black"/>
<path d="M68.845 191.73C69.0171 192.171 69.102 192.641 69.095 193.115C69.1063 193.589 69.0212 194.06 68.845 194.5C68.6704 194.06 68.5854 193.589 68.595 193.115C68.5879 192.641 68.6728 192.171 68.845 191.73V191.73Z" fill="black"/>
<path d="M72.905 191.73C73.2385 192.623 73.2385 193.607 72.905 194.5C72.5715 193.607 72.5715 192.623 72.905 191.73V191.73Z" fill="black"/>
<path d="M73.5 191.73C73.8334 192.623 73.8334 193.607 73.5 194.5C73.1665 193.607 73.1665 192.623 73.5 191.73V191.73Z" fill="black"/>
<path d="M79.525 191.73C79.8584 192.623 79.8584 193.607 79.525 194.5C79.1915 193.607 79.1915 192.623 79.525 191.73V191.73Z" fill="black"/>
<path d="M80.4 191.73C80.7334 192.623 80.7334 193.607 80.4 194.5C80.0665 193.607 80.0665 192.623 80.4 191.73V191.73Z" fill="black"/>
<path d="M78.275 191.73C78.6084 192.623 78.6084 193.607 78.275 194.5C77.9415 193.607 77.9415 192.623 78.275 191.73V191.73Z" fill="black"/>
<path d="M70.265 191.73C70.4371 192.171 70.522 192.641 70.515 193.115C70.5245 193.589 70.4395 194.06 70.265 194.5C70.0887 194.06 70.0037 193.589 70.015 193.115C70.0079 192.641 70.0928 192.171 70.265 191.73V191.73Z" fill="black"/>
</g>
<path opacity="0.1" d="M81.105 191.41V192.15L65.425 192.645V191.41H81.105Z" fill="black"/>
<path d="M81.1 201.805H65.425V205.27H81.1V201.805Z" fill="#EE8B4C"/>
<g opacity="0.1">
<path d="M80.4 204.895C80.0689 204 80.0689 203.015 80.4 202.12C80.7312 203.015 80.7312 204 80.4 204.895V204.895Z" fill="black"/>
<path d="M79.23 204.895C78.8989 204 78.8989 203.015 79.23 202.12C79.5612 203.015 79.5612 204 79.23 204.895V204.895Z" fill="black"/>
<path d="M78.66 204.895C78.3289 204 78.3289 203.015 78.66 202.12C78.8363 202.56 78.9213 203.031 78.91 203.505C78.9195 203.98 78.8346 204.453 78.66 204.895V204.895Z" fill="black"/>
<path d="M75.53 204.895C75.3578 204.452 75.2729 203.98 75.28 203.505C75.2687 203.031 75.3537 202.56 75.53 202.12C75.7041 202.561 75.7891 203.031 75.78 203.505C75.7871 203.98 75.7022 204.452 75.53 204.895V204.895Z" fill="black"/>
<path d="M74.685 204.895C74.3539 204 74.3539 203.015 74.685 202.12C75.0118 203.016 75.0118 203.999 74.685 204.895V204.895Z" fill="black"/>
<path d="M71.18 204.895C71.0078 204.452 70.9229 203.98 70.93 203.505C70.9209 203.031 71.0058 202.561 71.18 202.12C71.3562 202.56 71.4413 203.031 71.43 203.505C71.4371 203.98 71.3522 204.452 71.18 204.895V204.895Z" fill="black"/>
<path d="M70.37 204.895C70.0389 204 70.0389 203.015 70.37 202.12C70.5462 202.56 70.6313 203.031 70.62 203.505C70.6295 203.98 70.5445 204.453 70.37 204.895Z" fill="black"/>
<path d="M68.885 204.895C68.7129 204.452 68.628 203.98 68.635 203.505C68.6237 203.031 68.7088 202.56 68.885 202.12C69.0592 202.561 69.1442 203.031 69.135 203.505C69.1421 203.98 69.0572 204.452 68.885 204.895V204.895Z" fill="black"/>
<path d="M71.855 204.895C71.5239 204 71.5239 203.015 71.855 202.12C72.1862 203.015 72.1862 204 71.855 204.895V204.895Z" fill="black"/>
<path d="M77.625 204.895C77.2939 204 77.2939 203.015 77.625 202.12C77.8013 202.56 77.8863 203.031 77.875 203.505C77.8845 203.98 77.7996 204.453 77.625 204.895V204.895Z" fill="black"/>
<path d="M73.57 204.895C73.2389 204 73.2389 203.015 73.57 202.12C73.9011 203.015 73.9011 204 73.57 204.895V204.895Z" fill="black"/>
<path d="M73 204.895C72.8255 204.453 72.7405 203.98 72.75 203.505C72.7387 203.031 72.8238 202.56 73 202.12C73.1742 202.561 73.2591 203.031 73.25 203.505C73.2571 203.98 73.1722 204.452 73 204.895Z" fill="black"/>
<path d="M66.95 204.895C66.6189 204 66.6189 203.015 66.95 202.12C67.2812 203.015 67.2812 204 66.95 204.895V204.895Z" fill="black"/>
<path d="M66.07 204.895C65.7389 204 65.7389 203.015 66.07 202.12C66.4011 203.015 66.4011 204 66.07 204.895V204.895Z" fill="black"/>
<path d="M68.195 204.895C68.0229 204.452 67.938 203.98 67.945 203.505C67.9337 203.031 68.0188 202.56 68.195 202.12C68.3713 202.56 68.4563 203.031 68.445 203.505C68.4521 203.98 68.3672 204.452 68.195 204.895V204.895Z" fill="black"/>
<path d="M76.205 204.895C75.8739 204 75.8739 203.015 76.205 202.12C76.5362 203.015 76.5362 204 76.205 204.895V204.895Z" fill="black"/>
</g>
<path opacity="0.1" d="M81.105 201.805V202.54L65.425 203.035V201.805H81.105Z" fill="black"/>
<path d="M64.12 200.08C74.44 201.935 71.71 217.22 61.375 215.365C51.04 213.51 53.78 198.225 64.12 200.08Z" fill="#EE8B4C"/>
<path opacity="0.1" d="M64.12 200.08C74.44 201.935 71.71 217.22 61.375 215.365C51.04 213.51 53.78 198.225 64.12 200.08Z" fill="black"/>
<path d="M63.15 199.905C72.985 201.67 70.26 216.96 60.405 215.19C50.55 213.42 53.3 198.14 63.15 199.905Z" fill="#EE8B4C"/>
<path opacity="0.1" d="M55.54 207.91C55.595 210.635 57.18 213.27 60.64 213.91C68.815 215.375 71.08 202.685 62.915 201.22L62.755 201.195C70.41 202.73 68.215 214.735 60.42 213.335C59.0985 213.149 57.885 212.503 56.9925 211.511C56.1 210.519 55.5857 209.244 55.54 207.91V207.91Z" fill="black"/>
<g opacity="0.1">
<path d="M62.63 202.79C62.6954 202.809 62.751 202.852 62.7854 202.911C62.8199 202.969 62.8305 203.039 62.815 203.105L62.71 203.525C63.3797 203.746 63.9671 204.164 64.395 204.725C64.4316 204.761 64.459 204.805 64.4747 204.854C64.4904 204.903 64.4939 204.955 64.485 205.005C64.464 205.075 64.4171 205.134 64.3538 205.17C64.2906 205.206 64.2159 205.217 64.145 205.2C64.1096 205.192 64.0763 205.177 64.047 205.155C64.0178 205.134 63.9933 205.106 63.975 205.075C63.6205 204.589 63.1323 204.218 62.57 204.005L61.84 206.94C63.34 207.675 63.87 208.44 63.615 209.465C63.335 210.58 62.205 211.13 60.885 210.845L60.68 211.665C60.6759 211.702 60.6639 211.737 60.6449 211.769C60.6259 211.801 60.6004 211.828 60.5699 211.85C60.5395 211.871 60.5049 211.885 60.4684 211.892C60.432 211.898 60.3945 211.897 60.3586 211.888C60.3226 211.879 60.289 211.863 60.26 211.84C60.2309 211.817 60.2072 211.788 60.1903 211.755C60.1733 211.722 60.1637 211.685 60.1619 211.648C60.1601 211.611 60.1663 211.574 60.18 211.54L60.385 210.71C59.523 210.427 58.7815 209.861 58.28 209.105C58.25 209.072 58.2288 209.031 58.2183 208.988C58.2079 208.944 58.2084 208.898 58.22 208.855C58.2388 208.787 58.2831 208.729 58.3435 208.693C58.404 208.656 58.4762 208.645 58.545 208.66C58.5804 208.666 58.614 208.68 58.6434 208.701C58.6727 208.722 58.6972 208.749 58.715 208.78C59.1334 209.461 59.7721 209.978 60.525 210.245L61.27 207.245C59.77 206.505 59.27 205.745 59.54 204.72C59.81 203.695 60.925 203.08 62.215 203.37L62.315 202.97C62.3348 202.906 62.3783 202.851 62.4369 202.818C62.4954 202.784 62.5644 202.774 62.63 202.79V202.79ZM61.405 206.72L62.115 203.855C61.115 203.625 60.27 204.065 60.085 204.82C59.9 205.575 60.13 206.055 61.405 206.72ZM61.705 207.475L61 210.37C62.05 210.61 62.885 210.17 63.085 209.37C63.285 208.57 63 208.12 61.705 207.5V207.475Z" fill="black"/>
</g>
</svg>
