<svg width="30" height="30" viewBox="0 0 30 30" fill="none" xmlns="http://www.w3.org/2000/svg">
<circle cx="15" cy="15" r="15" fill="#8CA9E2"/>
<path d="M15.5547 14.7812C16.2839 14.7812 16.8594 14.6354 17.2812 14.3438C17.7083 14.0521 17.9219 13.526 17.9219 12.7656C17.9219 11.9479 17.625 11.3906 17.0312 11.0938C16.7135 10.9375 16.2891 10.8594 15.7578 10.8594H11.9609V14.7812H15.5547ZM10.4062 9.52344H15.7188C16.5938 9.52344 17.3151 9.65104 17.8828 9.90625C18.9609 10.3958 19.5 11.2995 19.5 12.6172C19.5 13.3047 19.3568 13.8672 19.0703 14.3047C18.7891 14.7422 18.3932 15.0938 17.8828 15.3594C18.3307 15.5417 18.6667 15.7812 18.8906 16.0781C19.1198 16.375 19.2474 16.8568 19.2734 17.5234L19.3281 19.0625C19.3438 19.5 19.3802 19.8255 19.4375 20.0391C19.5312 20.4036 19.6979 20.638 19.9375 20.7422V21H18.0312C17.9792 20.901 17.9375 20.7734 17.9062 20.6172C17.875 20.4609 17.849 20.1589 17.8281 19.7109L17.7344 17.7969C17.6979 17.0469 17.4193 16.5443 16.8984 16.2891C16.6016 16.1484 16.1354 16.0781 15.5 16.0781H11.9609V21H10.4062V9.52344Z" fill="white"/>
</svg>
