<svg width="52" height="21" viewBox="0 0 52 21" fill="none" xmlns="http://www.w3.org/2000/svg">
<g clip-path="url(#clip0_1_192)">
<path d="M18.9999 14.14C18.7644 14.1972 18.522 14.2207 18.2799 14.21C16.3899 14.21 17.0299 12.21 15.8799 12.21H15.6099V14.16H14.1699V8.51001H16.2799C17.7999 8.51001 18.5699 9.03001 18.5699 10.36C18.5701 10.6565 18.488 10.9472 18.3326 11.1997C18.1772 11.4522 17.9547 11.6566 17.6899 11.79C18.1399 12.33 18.0999 13 18.7699 13H18.9999V14.14ZM16.1099 11.14C16.6999 11.14 17.1099 10.9 17.1099 10.43C17.1099 9.96001 16.7599 9.70001 16.1899 9.70001H15.5999V11.14H16.1099Z" fill="#232C77"/>
<path d="M23.7201 11.48C23.882 11.6062 24.0117 11.769 24.0986 11.955C24.1855 12.1409 24.2272 12.3448 24.2201 12.55C24.2201 13.74 23.3401 14.17 22.3001 14.17H19.6201V8.51001H22.0001C23.1601 8.51001 23.8301 8.93001 23.8301 10.04C23.8301 11.15 23.2301 11.15 22.9201 11.15C23.2095 11.1678 23.4859 11.2763 23.7101 11.46L23.7201 11.48ZM21.6501 10.73C22.1401 10.73 22.3301 10.55 22.3301 10.19C22.3301 9.83001 22.0701 9.66001 21.5501 9.66001H21.0801V10.73H21.6501ZM21.8401 13C22.3201 13 22.5301 12.83 22.5301 12.39C22.5301 11.95 22.2301 11.76 21.8001 11.76H21.0901V13H21.8401Z" fill="#232C77"/>
<path d="M24.9199 14.17V8.51001H26.3999V13H28.6699V14.17H24.9199Z" fill="#232C77"/>
<path d="M30.0801 14.17V8.51001H32.1501C33.3101 8.51001 34.0001 9.00001 34.0001 10C34.0001 11 33.4001 11.2 33.1301 11.2C33.3044 11.2089 33.4752 11.2523 33.6326 11.3277C33.7901 11.4031 33.931 11.5089 34.0472 11.6391C34.1635 11.7693 34.2528 11.9213 34.3099 12.0862C34.367 12.2512 34.3909 12.4258 34.3801 12.6C34.3801 13.78 33.4401 14.17 32.3801 14.17H30.0801ZM32.0801 10.89C32.7201 10.89 32.9301 10.58 32.9301 10.11C32.9301 9.64001 32.6101 9.33001 31.9301 9.33001H31.1001V10.89H32.0801ZM32.1701 13.34C32.7601 13.34 33.2501 13.16 33.2501 12.48C33.2501 11.8 32.7801 11.61 32.1701 11.61H31.1001V13.34H32.1701Z" fill="#E20613"/>
<path d="M38.2999 12.71H36.2299L35.7299 14.17H34.6699L36.7499 8.51001H37.7499L39.8299 14.17H38.7999L38.2999 12.71ZM36.4999 11.92H37.9999L37.2299 9.76001L36.4999 11.92Z" fill="#E20613"/>
<path d="M43.8201 14.17L41.6101 10.36V14.17H40.5801V8.51001H41.6501L43.8801 12.43V8.51001H44.8901V14.17H43.8201Z" fill="#E20613"/>
<path d="M50.7901 13.4C50.0601 13.4 50.0401 12.18 49.4301 11.57C49.2204 11.3217 48.9421 11.1408 48.6301 11.05L50.8001 8.51001H49.4901L47.3301 11V8.51001H46.3301V14.17H47.3301V12.58L47.9601 11.84H48.0001C49.2001 11.84 48.8101 14.21 50.4601 14.21C50.6413 14.2124 50.8223 14.1957 51.0001 14.16V13.4H50.7901Z" fill="#E20613"/>
<path d="M2.83 3.59V0H0V8.5C0.000566916 7.50546 0.262258 6.5285 0.758897 5.66684C1.25554 4.80518 1.96972 4.08902 2.83 3.59Z" fill="#232C77"/>
<path d="M6.00008 2.85001V5.69001C6.54132 5.75551 7.05213 5.97595 7.47108 6.32484C7.89002 6.67372 8.19927 7.1362 8.36165 7.65665C8.52402 8.1771 8.53261 8.73338 8.38637 9.25859C8.24014 9.78381 7.9453 10.2556 7.53732 10.6173C7.12934 10.9789 6.62558 11.215 6.08662 11.2972C5.54765 11.3794 4.99642 11.3041 4.49921 11.0805C4.00199 10.8568 3.57996 10.4943 3.28385 10.0365C2.98775 9.57876 2.83017 9.0452 2.83008 8.50001V13.41C3.57084 13.8417 4.39986 14.0998 5.25477 14.1649C6.10968 14.23 6.96821 14.1003 7.76578 13.7857C8.56334 13.4711 9.27917 12.9796 9.85941 12.3484C10.4396 11.7172 10.8692 10.9626 11.1157 10.1415C11.3622 9.32028 11.4193 8.45388 11.2826 7.60746C11.1459 6.76104 10.8191 5.95664 10.3267 5.25477C9.83424 4.5529 9.18906 3.97184 8.43965 3.55532C7.69025 3.13879 6.85614 2.89764 6.00008 2.85001Z" fill="#232C77"/>
<path d="M2.83 3.59001C1.96972 4.08903 1.25554 4.80518 0.758897 5.66685C0.262258 6.52851 0.000566916 7.50547 0 8.50001L0 14.87H2.83V8.50001C2.82741 7.80916 3.07851 7.14139 3.53566 6.62342C3.9928 6.10544 4.62418 5.7733 5.31 5.69001V2.85001C4.43721 2.90147 3.58828 3.15478 2.83 3.59001Z" fill="#E20613"/>
<path d="M26.3 20C26.2302 20.0074 26.1598 20.0074 26.09 20C25.87 20 25.75 19.88 25.8 19.68C25.7168 19.7917 25.6079 19.8818 25.4826 19.9428C25.3573 20.0037 25.2193 20.0336 25.08 20.03C24.69 20.03 24.37 19.72 24.55 19.03C24.73 18.34 25.19 18.03 25.62 18.03C25.7243 18.024 25.8284 18.0459 25.9215 18.0933C26.0146 18.1408 26.0935 18.2121 26.15 18.3L26.22 18.06H26.61L26.25 19.53C26.25 19.65 26.25 19.72 26.37 19.72L26.3 20ZM26 18.71C26.0044 18.6612 25.9982 18.612 25.9818 18.5657C25.9655 18.5195 25.9393 18.4774 25.9051 18.4422C25.8709 18.4071 25.8295 18.3798 25.7837 18.3621C25.738 18.3445 25.6889 18.3369 25.64 18.34C25.37 18.34 25.11 18.55 25.01 18.98C24.91 19.41 25.08 19.62 25.32 19.62C25.71 19.62 25.87 19.21 25.88 19.22L26 18.71Z" fill="#232C77"/>
<path d="M26.71 21L27.33 18.51C27.33 18.39 27.33 18.33 27.21 18.33L27.29 17.99C27.3564 17.9827 27.4235 17.9827 27.49 17.99C27.7 17.99 27.83 18.11 27.78 18.31C27.861 18.1985 27.968 18.1083 28.0917 18.0473C28.2154 17.9863 28.3521 17.9564 28.49 17.96C28.89 17.96 29.22 18.26 29.04 18.96C28.86 19.66 28.38 19.96 27.95 19.96C27.52 19.96 27.47 19.71 27.47 19.71L27.16 21H26.71ZM27.59 19.25C27.584 19.2996 27.589 19.35 27.6047 19.3974C27.6204 19.4449 27.6463 19.4883 27.6807 19.5246C27.7151 19.5609 27.757 19.5891 27.8036 19.6074C27.8501 19.6256 27.9001 19.6333 27.95 19.63C28.23 19.63 28.48 19.42 28.59 18.98C28.7 18.54 28.51 18.35 28.27 18.35C28.1512 18.3625 28.0379 18.4061 27.9414 18.4763C27.8448 18.5465 27.7685 18.6409 27.72 18.75L27.59 19.25Z" fill="#232C77"/>
<path d="M31.34 20C31.2736 20.0084 31.2064 20.0084 31.14 20C30.87 20 30.76 19.86 30.84 19.52L31.03 18.78C31.09 18.52 31.03 18.35 30.75 18.35C30.6166 18.3627 30.4909 18.4183 30.3917 18.5084C30.2926 18.5986 30.2253 18.7184 30.2 18.85L29.91 20H29.47L29.84 18.52C29.84 18.41 29.84 18.33 29.71 18.33L29.8 18C29.8664 17.9916 29.9336 17.9916 30 18C30.2 18 30.33 18.13 30.28 18.32V18.38C30.3516 18.2549 30.4573 18.1527 30.5848 18.0854C30.7123 18.0182 30.8563 17.9885 31 18C31.51 18 31.62 18.36 31.51 18.79L31.34 19.5C31.34 19.62 31.34 19.69 31.45 19.69L31.34 20Z" fill="#232C77"/>
<path d="M32.0599 19C32.11 18.7259 32.2524 18.4772 32.4634 18.2953C32.6745 18.1134 32.9414 18.0092 33.2199 18C33.7899 18 34.0399 18.4 33.8799 19C33.8277 19.2749 33.6833 19.5238 33.4706 19.7056C33.2579 19.8874 32.9896 19.9913 32.7099 20C32.1499 20 31.9099 19.61 32.0599 19ZM33.4399 19C33.5399 18.58 33.4399 18.36 33.1299 18.36C32.8199 18.36 32.6099 18.58 32.4999 19C32.3899 19.42 32.4999 19.64 32.8099 19.64C33.1199 19.64 33.3299 19.42 33.4399 19Z" fill="#232C77"/>
<path d="M37.2901 20C37.2272 20.0103 37.163 20.0103 37.1001 20C36.4201 20 36.9001 19.07 36.2801 19.07H36.0001L35.7701 19.99H35.3301L36.0801 16.99H36.5201L36.0901 18.74H36.3401C36.6801 18.74 36.9801 18.47 37.1001 18H37.5201C37.4827 18.1991 37.3951 18.3853 37.2656 18.541C37.1361 18.6968 36.969 18.8169 36.7801 18.89C37.1301 19.07 36.8701 19.66 37.2901 19.66V20Z" fill="#232C77"/>
<path d="M39.66 20C39.5935 20.0074 39.5265 20.0074 39.46 20C39.23 20 39.12 19.88 39.17 19.68C39.0889 19.7916 38.9819 19.8817 38.8582 19.9427C38.7345 20.0037 38.5979 20.0336 38.46 20.03C38.07 20.03 37.75 19.72 37.92 19.03C38.09 18.34 38.56 18.03 39 18.03C39.1042 18.0251 39.2079 18.0474 39.3008 18.0947C39.3938 18.1421 39.4728 18.2128 39.53 18.3L39.59 18.06H40L39.63 19.53C39.63 19.65 39.63 19.72 39.76 19.72L39.66 20ZM39.36 18.74C39.3646 18.6903 39.3582 18.6401 39.3413 18.5931C39.3243 18.5461 39.2972 18.5035 39.2619 18.4681C39.2266 18.4328 39.1839 18.4057 39.1369 18.3887C39.0899 18.3718 39.0398 18.3654 38.99 18.37C38.73 18.37 38.47 18.58 38.36 19.01C38.25 19.44 38.43 19.65 38.68 19.65C38.7994 19.6395 38.9136 19.5968 39.0105 19.5263C39.1074 19.4558 39.1833 19.3603 39.23 19.25L39.36 18.74Z" fill="#232C77"/>
<path d="M41.3799 20L42.1399 17H42.5799L42.2599 18.28C42.3403 18.1862 42.44 18.1109 42.5522 18.0592C42.6643 18.0074 42.7863 17.9804 42.9099 17.98C43.3099 17.98 43.6399 18.28 43.4599 18.98C43.2799 19.68 42.8099 19.98 42.3699 19.98C42.2632 19.9862 42.157 19.9623 42.0633 19.911C41.9696 19.8597 41.8922 19.7831 41.8399 19.69L41.7799 19.96L41.3799 20ZM42.0199 19.24C42.0106 19.2911 42.0131 19.3437 42.0273 19.3937C42.0414 19.4437 42.0669 19.4898 42.1017 19.5284C42.1364 19.567 42.1796 19.5972 42.2278 19.6165C42.276 19.6359 42.3281 19.6439 42.3799 19.64C42.6499 19.64 42.9099 19.43 43.0099 18.99C43.1099 18.55 42.9299 18.36 42.6899 18.36C42.5712 18.3725 42.4578 18.4161 42.3613 18.4863C42.2647 18.5565 42.1884 18.6509 42.1399 18.76L42.0199 19.24Z" fill="#232C77"/>
<path d="M45.7199 20C45.6534 20.0074 45.5864 20.0074 45.5199 20C45.2899 20 45.1799 19.88 45.2299 19.68C45.1488 19.7916 45.0418 19.8817 44.9181 19.9427C44.7944 20.0037 44.6578 20.0336 44.5199 20.03C44.1299 20.03 43.7999 19.72 43.9799 19.03C44.1599 18.34 44.6199 18.03 45.0599 18.03C45.1641 18.0251 45.2678 18.0474 45.3607 18.0947C45.4537 18.1421 45.5327 18.2128 45.5899 18.3L45.6499 18.06H46.0499L45.6799 19.53C45.6799 19.65 45.6799 19.72 45.7999 19.72L45.7199 20ZM45.4199 18.74C45.4245 18.6903 45.4181 18.6401 45.4012 18.5931C45.3842 18.5461 45.3571 18.5035 45.3218 18.4681C45.2865 18.4328 45.2438 18.4057 45.1968 18.3887C45.1498 18.3718 45.0997 18.3654 45.0499 18.37C44.7899 18.37 44.5299 18.58 44.4199 19.01C44.3099 19.44 44.4899 19.65 44.7399 19.65C44.8593 19.6395 44.9735 19.5968 45.0704 19.5263C45.1673 19.4558 45.2432 19.3603 45.2899 19.25L45.4199 18.74Z" fill="#232C77"/>
<path d="M48.2599 20C48.1935 20.0084 48.1263 20.0084 48.0599 20C47.7899 20 47.6799 19.86 47.7599 19.52L47.9499 18.78C48.0099 18.52 47.9499 18.35 47.6699 18.35C47.5365 18.3627 47.4108 18.4183 47.3117 18.5084C47.2125 18.5986 47.1452 18.7184 47.1199 18.85L46.8399 20H46.3899L46.7599 18.52C46.7599 18.41 46.7599 18.33 46.6299 18.33L46.7199 18C46.7863 17.9916 46.8535 17.9916 46.9199 18C47.1199 18 47.2499 18.13 47.1999 18.32V18.38C47.2695 18.257 47.3717 18.1556 47.4952 18.0868C47.6186 18.018 47.7587 17.9845 47.8999 17.99C48.4099 17.99 48.5299 18.35 48.4199 18.78L48.2399 19.49C48.2399 19.61 48.2399 19.68 48.3599 19.68L48.2599 20Z" fill="#232C77"/>
<path d="M50.7601 20C50.6971 20.0089 50.6331 20.0089 50.5701 20C49.8801 20 50.3601 19.07 49.7401 19.07H49.5101L49.2801 19.99H48.8301L49.5801 16.99H50.0001L49.5601 18.74H49.8201C50.0161 18.7273 50.2015 18.6463 50.344 18.5111C50.4865 18.3759 50.5771 18.1951 50.6001 18H51.0001C50.9627 18.1991 50.8751 18.3853 50.7456 18.541C50.6161 18.6968 50.449 18.8169 50.2601 18.89C50.6101 19.07 50.3601 19.66 50.7701 19.66H50.8201L50.7601 20Z" fill="#232C77"/>
</g>
<defs>
<clipPath id="clip0_1_192">
<rect width="51.02" height="20.99" fill="white"/>
</clipPath>
</defs>
</svg>
