<svg width="40" height="16" viewBox="0 0 40 16" fill="none" xmlns="http://www.w3.org/2000/svg">
<g clip-path="url(#clip0_1_172)">
<path fill-rule="evenodd" clip-rule="evenodd" d="M0 4.65115H40V13.623H0V4.65115Z" fill="white"/>
<path fill-rule="evenodd" clip-rule="evenodd" d="M0.287842 4.93881H39.7187V13.3354H0.287842V4.93881Z" fill="#0A418E"/>
<path fill-rule="evenodd" clip-rule="evenodd" d="M3.83723 11.2362H4.82254V9.20441L6.41985 7.04407H5.37334L4.41862 8.3721L3.54959 7.04407H2.3562L3.83723 9.24725V11.2362Z" fill="white"/>
<path fill-rule="evenodd" clip-rule="evenodd" d="M6.84814 11.2362H9.41852V10.355H7.80286V9.52265H9.16761V8.66585H7.80286V7.90698H9.40016V7.04407H6.84814V11.2362Z" fill="white"/>
<path fill-rule="evenodd" clip-rule="evenodd" d="M10.3429 10.0551L10.4041 11.175C10.6121 11.2362 10.8161 11.2852 11.0161 11.3219C11.1856 11.3541 11.3576 11.3725 11.5301 11.377C11.9296 11.3988 12.3227 11.27 12.6317 11.0159C12.7641 10.8903 12.8686 10.7381 12.9382 10.5694C13.0078 10.4007 13.041 10.2192 13.0356 10.0367C13.0455 9.74808 12.9423 9.46699 12.748 9.25335C12.5314 9.03722 12.2813 8.85743 12.0075 8.72092L11.5179 8.45164C11.4356 8.40705 11.3628 8.34675 11.3037 8.27416C11.2582 8.21646 11.2324 8.14565 11.2302 8.0722C11.2298 8.02375 11.2406 7.97585 11.2618 7.9323C11.2831 7.88874 11.3142 7.85074 11.3526 7.82128C11.4518 7.75981 11.5665 7.72796 11.6831 7.72949C11.8326 7.73595 11.9798 7.76911 12.1176 7.8274C12.3307 7.90778 12.5356 8.00819 12.7296 8.12728V7.14809C12.5482 7.08136 12.362 7.02817 12.1727 6.98897C12.0098 6.95353 11.8437 6.93507 11.677 6.93389C11.3193 6.92029 10.9689 7.03781 10.6917 7.26437C10.5754 7.36683 10.4824 7.49306 10.4191 7.63454C10.3557 7.77601 10.3235 7.92944 10.3245 8.08444C10.3227 8.32314 10.3908 8.55714 10.5203 8.75764C10.6817 8.97731 10.891 9.15731 11.1323 9.28395L11.4138 9.44307C11.628 9.56547 11.7994 9.66951 11.9218 9.75519C11.9785 9.79402 12.0248 9.84608 12.0568 9.90687C12.0888 9.96766 12.1055 10.0353 12.1054 10.104C12.1059 10.1603 12.0928 10.2158 12.0673 10.2659C12.0417 10.316 12.0044 10.3591 11.9585 10.3917C11.8353 10.4777 11.6862 10.5188 11.5362 10.5079C11.3393 10.5076 11.1441 10.4702 10.961 10.3978C10.7489 10.3103 10.5443 10.2059 10.349 10.0857L10.3429 10.0551Z" fill="white"/>
<path fill-rule="evenodd" clip-rule="evenodd" d="M29.1616 11.2362H29.8654V8.57405L32.546 11.377H32.6194V7.04406H31.9095V9.71236L29.2412 6.90942H29.1616V11.2362Z" fill="white"/>
<path fill-rule="evenodd" clip-rule="evenodd" d="M33.9412 11.2362H34.6633V9.27785L36.5299 11.2362H37.4663L35.3794 9.05753L37.2704 7.04407H36.4259L34.6633 8.91677V7.04407H33.9412V11.2362Z" fill="white"/>
<path fill-rule="evenodd" clip-rule="evenodd" d="M23.1151 0L14.0269 16.4933L10.9058 13.3354H13.0539L23.1151 0Z" fill="white"/>
<path fill-rule="evenodd" clip-rule="evenodd" d="M21.9768 1.76868L13.9658 16.022L11.5974 13.623H13.2008L21.9768 1.76868Z" fill="#E60001"/>
<path fill-rule="evenodd" clip-rule="evenodd" d="M25.1287 11.2362L25.4653 10.4896H27.3564L27.6868 11.2362H28.4518L26.4873 6.90942H26.4261L24.3882 11.2362H25.1287ZM25.7407 9.89596L26.4261 8.32925L27.0993 9.89596H25.7407Z" fill="white"/>
<path fill-rule="evenodd" clip-rule="evenodd" d="M21.1997 11.2362V7.04405H22.4237C22.789 7.02307 23.1515 7.11957 23.458 7.31945C23.5756 7.41306 23.6687 7.53379 23.7295 7.67128C23.7902 7.80877 23.8168 7.95894 23.8068 8.10892C23.8131 8.30181 23.7549 8.49129 23.6416 8.64748C23.5183 8.8142 23.3444 8.93657 23.1459 8.99631C23.3668 9.04705 23.5635 9.17241 23.7028 9.35127C23.8371 9.54496 23.9057 9.77663 23.8986 10.0122C23.9099 10.1867 23.8798 10.3614 23.8107 10.5221C23.7415 10.6827 23.6354 10.8246 23.5008 10.9363C23.1478 11.1619 22.7313 11.2671 22.3135 11.2362H21.1997ZM21.9035 10.6242V9.34515H22.4115C22.6288 9.323 22.8468 9.38184 23.0235 9.51039C23.0881 9.57022 23.139 9.6433 23.1728 9.72462C23.2066 9.80595 23.2225 9.89361 23.2193 9.98163C23.2254 10.0742 23.2104 10.1669 23.1754 10.2527C23.1404 10.3386 23.0864 10.4154 23.0173 10.4773C22.8545 10.6018 22.6529 10.6646 22.4482 10.6548L21.9035 10.6242ZM21.9035 8.78824V7.60097H22.3013C22.5143 7.58228 22.7278 7.62927 22.9133 7.7356C22.9818 7.78283 23.0365 7.84734 23.072 7.92259C23.1075 7.99783 23.1224 8.08112 23.1153 8.164C23.1189 8.24996 23.1025 8.33558 23.0675 8.41416C23.0324 8.49273 22.9796 8.56212 22.9133 8.61688C22.7462 8.73685 22.5436 8.79719 22.338 8.78824H21.9035Z" fill="white"/>
</g>
<defs>
<clipPath id="clip0_1_172">
<rect width="40" height="16" fill="white"/>
</clipPath>
</defs>
</svg>
