<svg width="20" height="20" viewBox="0 0 20 20" fill="none" xmlns="http://www.w3.org/2000/svg">
<path fill-rule="evenodd" clip-rule="evenodd" d="M18.3337 10C18.3337 14.6024 14.6027 18.3334 10.0003 18.3334C5.39795 18.3334 1.66699 14.6024 1.66699 10C1.66699 5.39765 5.39795 1.66669 10.0003 1.66669C14.6027 1.66669 18.3337 5.39765 18.3337 10ZM14.3229 8.40114C14.5904 8.08494 14.551 7.61171 14.2348 7.34415C13.9186 7.07659 13.4453 7.11603 13.1778 7.43223L9.12096 12.2267L7.19732 10.303C6.90443 10.0101 6.42955 10.0101 6.13666 10.303C5.84377 10.5959 5.84377 11.0708 6.13666 11.3637L8.63666 13.8637C8.78497 14.012 8.9886 14.0914 9.19816 14.0827C9.40772 14.074 9.60405 13.9779 9.73953 13.8178L14.3229 8.40114Z" fill="#419B56"/>
</svg>
