<svg width="16" height="16" viewBox="0 0 16 16" fill="none" xmlns="http://www.w3.org/2000/svg">
<path fill-rule="evenodd" clip-rule="evenodd" d="M2.5 0.5C2.5 0.223858 2.72386 0 3 0H13C13.2761 0 13.5 0.223858 13.5 0.5C13.5 1.03752 13.4881 1.54912 13.4655 2.0359C14.9013 2.25956 16 3.50147 16 5C16 6.65685 14.6569 8 13 8C12.7711 8 12.5478 7.97428 12.3331 7.92549C11.5432 9.79077 10.4549 10.7027 9.5 10.9374V13.1096L10.9254 13.466C11.1193 13.5144 11.3016 13.6012 11.4616 13.7212L13.3 15.1C13.4722 15.2291 13.5424 15.4539 13.4743 15.6581C13.4063 15.8623 13.2152 16 13 16H3C2.78478 16 2.59372 15.8623 2.52566 15.6581C2.4576 15.4539 2.52783 15.2291 2.7 15.1L4.53845 13.7212C4.69839 13.6012 4.88069 13.5144 5.07464 13.466L6.5 13.1096V10.9374C5.54507 10.7027 4.45678 9.79077 3.66695 7.92549C3.45217 7.97428 3.22889 8 3 8C1.34315 8 0 6.65685 0 5C0 3.50147 1.09871 2.25956 2.53451 2.0359C2.51187 1.54912 2.5 1.03752 2.5 0.5ZM2.599 3.04021C1.6866 3.22591 1 4.03277 1 5C1 6.10457 1.89543 7 3 7C3.10849 7 3.21477 6.9914 3.31826 6.97489C2.98587 5.92537 2.73063 4.62948 2.599 3.04021ZM12.6817 6.97489C12.7852 6.9914 12.8915 7 13 7C14.1046 7 15 6.10457 15 5C15 4.03277 14.3134 3.22591 13.401 3.04021C13.2694 4.62948 13.0141 5.92537 12.6817 6.97489Z" fill="#333333"/>
</svg>
