<svg width="20" height="20" viewBox="0 0 20 20" fill="none" xmlns="http://www.w3.org/2000/svg">
<path fill-rule="evenodd" clip-rule="evenodd" d="M17.3409 1.39535C17.0057 1.39535 16.6843 1.52849 16.4473 1.76549L7.80002 10.4128L7.20428 12.7957L9.58723 12.2L18.2345 3.5527C18.4715 3.3157 18.6047 2.99426 18.6047 2.6591C18.6047 2.32393 18.4715 2.00249 18.2345 1.76549C17.9975 1.52849 17.6761 1.39535 17.3409 1.39535ZM15.4606 0.778831C15.9593 0.280154 16.6357 0 17.3409 0C18.0461 0 18.7225 0.280154 19.2212 0.778831C19.7198 1.27751 20 1.95386 20 2.6591C20 3.36433 19.7198 4.04068 19.2212 4.53936L10.4372 13.3233C10.3478 13.4127 10.2358 13.4761 10.1131 13.5068L6.41463 14.4314C6.17688 14.4909 5.92538 14.4212 5.75209 14.2479C5.5788 14.0746 5.50914 13.8231 5.56857 13.5854L6.4932 9.88687C6.52387 9.7642 6.5873 9.65216 6.67671 9.56275L15.4606 0.778831ZM0.745976 2.70741C1.22362 2.22977 1.87144 1.96144 2.54692 1.96144H9.01929C9.4046 1.96144 9.71696 2.2738 9.71696 2.65911C9.71696 3.04443 9.4046 3.35679 9.01929 3.35679H2.54692C2.24151 3.35679 1.9486 3.47811 1.73264 3.69407C1.51667 3.91004 1.39535 4.20294 1.39535 4.50836V17.4531C1.39535 17.7585 1.51667 18.0514 1.73264 18.2674C1.9486 18.4833 2.24151 18.6047 2.54692 18.6047H15.4917C15.7971 18.6047 16.09 18.4833 16.3059 18.2674C16.5219 18.0514 16.6432 17.7585 16.6432 17.4531V10.9807C16.6432 10.5954 16.9556 10.283 17.3409 10.283C17.7262 10.283 18.0386 10.5954 18.0386 10.9807V17.4531C18.0386 18.1286 17.7702 18.7764 17.2926 19.254C16.815 19.7317 16.1671 20 15.4917 20H2.54692C1.87144 20 1.22362 19.7317 0.745976 19.254C0.268336 18.7764 0 18.1286 0 17.4531V4.50836C0 3.83287 0.268336 3.18505 0.745976 2.70741Z" fill="#0662B7"/>
</svg>
