<svg width="16" height="16" viewBox="0 0 16 16" fill="none" xmlns="http://www.w3.org/2000/svg">
<path fill-rule="evenodd" clip-rule="evenodd" d="M7.99968 2.26358C4.83153 2.26358 2.26324 4.83187 2.26324 8.00001C2.26324 11.1682 4.83153 13.7364 7.99968 13.7364C11.1678 13.7364 13.7361 11.1682 13.7361 8.00001C13.7361 4.83187 11.1678 2.26358 7.99968 2.26358ZM1.33301 8.00001C1.33301 4.31811 4.31778 1.33334 7.99968 1.33334C11.6816 1.33334 14.6663 4.31811 14.6663 8.00001C14.6663 11.6819 11.6816 14.6667 7.99968 14.6667C4.31778 14.6667 1.33301 11.6819 1.33301 8.00001ZM7.99968 5.05427C8.25655 5.05427 8.46479 5.26251 8.46479 5.51939V8.00001C8.46479 8.25689 8.25655 8.46513 7.99968 8.46513C7.7428 8.46513 7.53456 8.25689 7.53456 8.00001V5.51939C7.53456 5.26251 7.7428 5.05427 7.99968 5.05427ZM7.53456 10.4806C7.53456 10.2238 7.7428 10.0155 7.99968 10.0155H8.00588C8.26275 10.0155 8.47099 10.2238 8.47099 10.4806C8.47099 10.7375 8.26275 10.9457 8.00588 10.9457H7.99968C7.7428 10.9457 7.53456 10.7375 7.53456 10.4806Z" fill="#2F80ED"/>
</svg>
