<svg width="20" height="22" viewBox="0 0 20 22" fill="none" xmlns="http://www.w3.org/2000/svg">
<path fill-rule="evenodd" clip-rule="evenodd" d="M7.94872 1.53488C7.6087 1.53488 7.2826 1.66964 7.04217 1.90951C6.80174 2.14939 6.66667 2.47472 6.66667 2.81395V4.09302H13.3333V2.81395C13.3333 2.47472 13.1983 2.14939 12.9578 1.90951C12.7174 1.66964 12.3913 1.53488 12.0513 1.53488H7.94872ZM14.8718 4.09302V2.81395C14.8718 2.06765 14.5746 1.35191 14.0457 0.824188C13.5167 0.296469 12.7993 0 12.0513 0H7.94872C7.20067 0 6.48326 0.296469 5.95431 0.824188C5.42537 1.35191 5.12821 2.06765 5.12821 2.81395V4.09302H0.769231C0.344396 4.09302 0 4.43662 0 4.86047C0 5.28431 0.344396 5.62791 0.769231 5.62791H2.05128V19.186C2.05128 19.9324 2.34844 20.6481 2.87739 21.1758C3.40634 21.7035 4.12375 22 4.8718 22H15.1282C15.8763 22 16.5937 21.7035 17.1226 21.1758C17.6516 20.6481 17.9487 19.9324 17.9487 19.186V5.62791H19.2308C19.6556 5.62791 20 5.28431 20 4.86047C20 4.43662 19.6556 4.09302 19.2308 4.09302H14.8718ZM3.58974 5.62791V19.186C3.58974 19.5253 3.72482 19.8506 3.96525 20.0905C4.20568 20.3304 4.53177 20.4651 4.8718 20.4651H15.1282C15.4682 20.4651 15.7943 20.3304 16.0348 20.0905C16.2752 19.8506 16.4103 19.5253 16.4103 19.186V5.62791H3.58974ZM7.94872 9.2093C8.37355 9.2093 8.71795 9.5529 8.71795 9.97674V16.1163C8.71795 16.5401 8.37355 16.8837 7.94872 16.8837C7.52388 16.8837 7.17949 16.5401 7.17949 16.1163V9.97674C7.17949 9.5529 7.52388 9.2093 7.94872 9.2093ZM12.0513 9.2093C12.4761 9.2093 12.8205 9.5529 12.8205 9.97674V16.1163C12.8205 16.5401 12.4761 16.8837 12.0513 16.8837C11.6264 16.8837 11.2821 16.5401 11.2821 16.1163V9.97674C11.2821 9.5529 11.6264 9.2093 12.0513 9.2093Z" fill="#0662B7"/>
</svg>
